<svg xmlns="http://www.w3.org/2000/svg" xmlns:xlink="http://www.w3.org/1999/xlink" width="414" zoomAndPan="magnify" viewBox="0 0 310.5 266.250005" height="355" preserveAspectRatio="xMidYMid meet" version="1.0"><defs><g/><clipPath id="e8bf33c3d7"><path d="M 39 75 L 120 75 L 120 159 L 39 159 Z M 39 75 " clip-rule="nonzero"/></clipPath><clipPath id="ea19e4bd85"><path d="M 102.605469 0 L 235.84375 116.898438 L 133.253906 233.835938 L 0.0117188 116.9375 Z M 102.605469 0 " clip-rule="nonzero"/></clipPath><clipPath id="4b2d0b0d9a"><path d="M 133.394531 233.601562 L 0.152344 116.707031 L 102.746094 -0.230469 L 235.988281 116.664062 Z M 133.394531 233.601562 " clip-rule="nonzero"/></clipPath><clipPath id="45395f1ea4"><path d="M 70 19 L 169 19 L 169 118 L 70 118 Z M 70 19 " clip-rule="nonzero"/></clipPath><clipPath id="3eb3d0d739"><path d="M 102.605469 0 L 235.84375 116.898438 L 133.253906 233.835938 L 0.0117188 116.9375 Z M 102.605469 0 " clip-rule="nonzero"/></clipPath><clipPath id="dec73ab290"><path d="M 133.394531 233.601562 L 0.152344 116.707031 L 102.746094 -0.230469 L 235.988281 116.664062 Z M 133.394531 233.601562 " clip-rule="nonzero"/></clipPath><clipPath id="0ed027d502"><path d="M 121 60 L 220 60 L 220 157 L 121 157 Z M 121 60 " clip-rule="nonzero"/></clipPath><clipPath id="a30e7ff776"><path d="M 102.605469 0 L 235.84375 116.898438 L 133.253906 233.835938 L 0.0117188 116.9375 Z M 102.605469 0 " clip-rule="nonzero"/></clipPath><clipPath id="d52393eeae"><path d="M 133.394531 233.601562 L 0.152344 116.707031 L 102.746094 -0.230469 L 235.988281 116.664062 Z M 133.394531 233.601562 " clip-rule="nonzero"/></clipPath><clipPath id="06897d603e"><path d="M 88 120 L 169 120 L 169 197 L 88 197 Z M 88 120 " clip-rule="nonzero"/></clipPath><clipPath id="f1d3f24c00"><path d="M 102.605469 0 L 235.84375 116.898438 L 133.253906 233.835938 L 0.0117188 116.9375 Z M 102.605469 0 " clip-rule="nonzero"/></clipPath><clipPath id="22bffee5de"><path d="M 133.394531 233.601562 L 0.152344 116.707031 L 102.746094 -0.230469 L 235.988281 116.664062 Z M 133.394531 233.601562 " clip-rule="nonzero"/></clipPath><clipPath id="847cdaf30f"><path d="M 163 53 L 261 53 L 261 170 L 163 170 Z M 163 53 " clip-rule="nonzero"/></clipPath><clipPath id="9a30363431"><path d="M 155.09375 0 L 309.386719 50.324219 L 253.726562 220.972656 L 99.433594 170.648438 Z M 155.09375 0 " clip-rule="nonzero"/></clipPath><clipPath id="e1b70648ac"><path d="M 155.09375 0 L 309.386719 50.324219 L 253.726562 220.972656 L 99.433594 170.648438 Z M 155.09375 0 " clip-rule="nonzero"/></clipPath><clipPath id="804a4f9bf9"><path d="M 196 62 L 256 62 L 256 156 L 196 156 Z M 196 62 " clip-rule="nonzero"/></clipPath><clipPath id="99e50ec0f5"><path d="M 155.09375 0 L 309.386719 50.324219 L 253.726562 220.972656 L 99.433594 170.648438 Z M 155.09375 0 " clip-rule="nonzero"/></clipPath><clipPath id="1bce78bcbc"><path d="M 155.09375 0 L 309.386719 50.324219 L 253.726562 220.972656 L 99.433594 170.648438 Z M 155.09375 0 " clip-rule="nonzero"/></clipPath><clipPath id="e5aeb993ac"><path d="M 165 152 L 208 152 L 208 198 L 165 198 Z M 165 152 " clip-rule="nonzero"/></clipPath><clipPath id="00cfca8ec1"><path d="M 155.09375 0 L 309.386719 50.324219 L 253.726562 220.972656 L 99.433594 170.648438 Z M 155.09375 0 " clip-rule="nonzero"/></clipPath><clipPath id="6da0ffd005"><path d="M 155.09375 0 L 309.386719 50.324219 L 253.726562 220.972656 L 99.433594 170.648438 Z M 155.09375 0 " clip-rule="nonzero"/></clipPath><clipPath id="be57f55ec5"><path d="M 131 25 L 295 25 L 295 195 L 131 195 Z M 131 25 " clip-rule="nonzero"/></clipPath><clipPath id="fe8ad3f0fc"><path d="M 155.09375 0 L 309.386719 50.324219 L 253.726562 220.972656 L 99.433594 170.648438 Z M 155.09375 0 " clip-rule="nonzero"/></clipPath><clipPath id="17cb163c52"><path d="M 155.09375 0 L 309.386719 50.324219 L 253.726562 220.972656 L 99.433594 170.648438 Z M 155.09375 0 " clip-rule="nonzero"/></clipPath><clipPath id="edaedd48cb"><path d="M 155.230469 0.046875 L 309.53125 50.375 L 255.199219 216.957031 L 100.898438 166.628906 Z M 155.230469 0.046875 " clip-rule="nonzero"/></clipPath><clipPath id="c1cb72185b"><path d="M 171 64 L 197 64 L 197 117 L 171 117 Z M 171 64 " clip-rule="nonzero"/></clipPath><clipPath id="eaf1a99290"><path d="M 155.09375 0 L 309.386719 50.324219 L 253.726562 220.972656 L 99.433594 170.648438 Z M 155.09375 0 " clip-rule="nonzero"/></clipPath><clipPath id="c8eb6664c5"><path d="M 155.09375 0 L 309.386719 50.324219 L 253.726562 220.972656 L 99.433594 170.648438 Z M 155.09375 0 " clip-rule="nonzero"/></clipPath></defs><g clip-path="url(#e8bf33c3d7)"><g clip-path="url(#ea19e4bd85)"><g clip-path="url(#4b2d0b0d9a)"><path fill="#c1666b" d="M 88.917969 92.980469 L 68.226562 75.464844 L 40.566406 112.210938 C 39.410156 113.75 39.480469 115.886719 40.742188 117.347656 L 52.695312 131.160156 C 52.695312 131.160156 32.007812 144.613281 48.070312 155.152344 C 64.144531 165.695312 73.960938 145.894531 73.960938 145.894531 L 88.039062 158.246094 L 96.546875 148.53125 C 94.652344 147.140625 90.496094 143.652344 89.515625 139.046875 C 88.945312 136.410156 89.503906 133.835938 91.160156 131.386719 C 92.789062 128.996094 94.96875 127.523438 97.628906 127.019531 C 102.632812 126.085938 107.902344 128.882812 109.8125 130.039062 L 118.570312 120.058594 C 118.742188 119.859375 118.9375 119.679688 119.160156 119.535156 L 106.113281 108.085938 L 106.90625 107.347656 C 107.066406 107.199219 122.722656 92.472656 113.929688 81.882812 C 112.226562 79.828125 110.242188 78.863281 107.875 78.910156 C 99.488281 79.101562 89.644531 92.019531 89.550781 92.15625 L 88.914062 92.980469 Z M 88.917969 92.980469 " fill-opacity="1" fill-rule="nonzero"/></g></g></g><g clip-path="url(#45395f1ea4)"><g clip-path="url(#3eb3d0d739)"><g clip-path="url(#dec73ab290)"><path fill="#48a9a6" d="M 88.714844 25.828125 C 94.371094 27.226562 99.183594 32.941406 99.699219 37.113281 L 99.949219 39.105469 L 119.402344 19.578125 L 168.601562 58.171875 C 167.34375 58.386719 166.191406 59.03125 165.34375 60 L 153.8125 73.140625 C 151.640625 71.023438 145.15625 65.910156 136.316406 69.933594 C 130.964844 72.363281 127.882812 75.9375 127.648438 79.992188 C 127.429688 83.542969 129.476562 86.902344 133.25 89.207031 L 139.492188 93.019531 L 134.683594 98.605469 L 121.105469 114.390625 C 120.359375 115.273438 119.898438 116.332031 119.773438 117.449219 L 109.019531 108.015625 C 111.988281 104.957031 122.277344 93.285156 117.1875 83.253906 C 116.734375 82.359375 116.160156 81.480469 115.441406 80.621094 C 113.957031 78.832031 112.234375 77.6875 110.289062 77.203125 C 109.503906 77.011719 108.683594 76.917969 107.832031 76.9375 C 99.734375 77.125 91.039062 87.160156 88.632812 90.152344 L 70.480469 74.789062 L 84.902344 54.929688 L 85.679688 53.867188 L 84.566406 53.386719 C 84.464844 53.347656 75.410156 49.355469 73.417969 42.375 C 72.46875 39.054688 73.273438 35.53125 75.8125 31.886719 C 80.339844 25.371094 85.332031 24.988281 88.722656 25.824219 Z M 88.714844 25.828125 " fill-opacity="1" fill-rule="nonzero"/></g></g></g><g clip-path="url(#0ed027d502)"><g clip-path="url(#a30e7ff776)"><g clip-path="url(#d52393eeae)"><path fill="#e4dfda" d="M 121.898438 119.042969 C 122.222656 119.132812 122.542969 119.273438 122.839844 119.457031 C 122.949219 119.523438 123.058594 119.609375 123.160156 119.699219 C 138.613281 132.683594 161.953125 150.363281 168.742188 155.472656 C 168.804688 155.515625 168.867188 155.570312 168.925781 155.621094 C 169.300781 155.949219 169.59375 156.359375 169.789062 156.824219 C 170.625 156.6875 171.421875 156.273438 172.015625 155.578125 L 189.722656 134.9375 L 190.464844 135.785156 C 190.59375 135.9375 203.726562 150.617188 212.285156 143.164062 C 214.140625 141.554688 215.066406 139.652344 215.128906 137.351562 C 215.316406 130.390625 207.324219 122.546875 207.25 122.464844 L 206.582031 121.816406 L 218.203125 108.570312 C 219.550781 107.035156 219.398438 104.695312 217.863281 103.351562 L 207.078125 93.890625 C 206.238281 93.152344 205.117188 92.835938 204.011719 93.027344 C 202.917969 93.21875 201.984375 93.871094 201.441406 94.84375 C 196.5625 103.480469 189.59375 105.933594 181.8125 101.75 C 180.78125 101.199219 179.886719 100.582031 179.128906 99.917969 C 177.425781 98.425781 176.421875 96.65625 176.136719 94.628906 C 175.347656 89.070312 180.226562 82.980469 184.449219 78.847656 C 185.152344 78.148438 185.550781 77.21875 185.566406 76.226562 C 185.574219 75.246094 185.195312 74.3125 184.503906 73.613281 L 172.222656 61.128906 C 172.085938 60.980469 171.929688 60.859375 171.765625 60.742188 C 171.496094 60.535156 171.199219 60.378906 170.886719 60.257812 C 170.539062 60.136719 170.179688 60.054688 169.800781 60.039062 C 169.695312 60.023438 169.59375 60.023438 169.480469 60.027344 C 168.441406 60.054688 167.5 60.503906 166.8125 61.285156 L 153.792969 76.125 L 153.058594 75.210938 C 152.800781 74.894531 146.617188 67.402344 137.121094 71.714844 C 132.539062 73.796875 129.792969 76.855469 129.59375 80.113281 C 129.421875 82.914062 131.128906 85.625 134.261719 87.539062 L 142.484375 92.546875 L 128.777344 108.480469 L 122.585938 115.671875 C 122.082031 116.261719 121.773438 116.984375 121.703125 117.746094 C 121.6875 117.929688 121.679688 118.113281 121.699219 118.304688 C 121.691406 118.328125 121.695312 118.351562 121.695312 118.382812 C 121.714844 118.609375 121.753906 118.820312 121.8125 119.03125 L 121.890625 119.046875 Z M 121.898438 119.042969 " fill-opacity="1" fill-rule="nonzero"/></g></g></g><g clip-path="url(#06897d603e)"><g clip-path="url(#f1d3f24c00)"><g clip-path="url(#22bffee5de)"><path fill="#4281a4" d="M 120.558594 121.003906 C 120.359375 121.0625 120.1875 121.1875 120.042969 121.347656 L 110.15625 132.617188 L 109.4375 132.132812 C 109.378906 132.082031 103.304688 127.953125 97.984375 128.949219 C 95.859375 129.351562 94.105469 130.542969 92.789062 132.492188 C 91.4375 134.476562 90.984375 136.542969 91.425781 138.628906 C 92.507812 143.714844 98.464844 147.476562 98.53125 147.511719 L 99.511719 148.121094 L 89.515625 159.546875 L 89.09375 160.023438 C 88.855469 160.296875 88.742188 160.652344 88.761719 161.011719 C 88.78125 161.375 88.9375 161.648438 89.222656 161.914062 C 96.5625 168.207031 121.4375 189.3125 133.226562 196.648438 C 133.785156 196.992188 134.503906 196.882812 134.941406 196.390625 L 167.757812 158.980469 C 167.84375 158.886719 167.90625 158.78125 167.953125 158.683594 C 168.070312 158.457031 168.113281 158.222656 168.085938 157.964844 C 168.082031 157.871094 168.058594 157.773438 168.019531 157.683594 C 167.941406 157.433594 167.78125 157.214844 167.566406 157.039062 C 160.769531 151.925781 137.414062 134.238281 121.917969 121.222656 L 121.902344 121.207031 C 121.820312 121.109375 121.738281 121.023438 121.679688 120.929688 C 121.667969 120.90625 121.65625 120.894531 121.648438 120.875 L 121.550781 121 C 121.300781 120.898438 121.023438 120.875 120.757812 120.933594 L 120.554688 121.003906 Z M 120.558594 121.003906 " fill-opacity="1" fill-rule="nonzero"/></g></g></g><g clip-path="url(#847cdaf30f)"><g clip-path="url(#9a30363431)"><g clip-path="url(#e1b70648ac)"><path fill="#f6b737" d="M 252.71875 116.886719 C 246.746094 126.871094 238.234375 134.128906 228.304688 139.96875 C 223.242188 142.945312 218.046875 145.832031 213.777344 149.917969 C 211.546875 152.050781 209.628906 154.492188 208.0625 157.148438 C 206.496094 159.808594 205.71875 162.722656 204.355469 165.449219 C 202.03125 170.105469 197.128906 169.390625 192.945312 167.996094 C 187.023438 166.023438 181.277344 163.488281 175.820312 160.453125 C 175.253906 160.484375 174.617188 160.105469 174.726562 159.460938 C 175.214844 156.550781 175.71875 153.636719 176.0625 150.703125 C 176.765625 144.652344 176.675781 138.558594 174.578125 132.777344 C 172.695312 127.601562 169.777344 122.886719 167.523438 117.878906 C 163.183594 108.226562 162.429688 97.3125 164.863281 87.050781 C 167.070312 77.730469 171.992188 68.839844 179.328125 62.59375 C 187.148438 55.9375 197.148438 53.257812 207.285156 53.480469 C 218.472656 53.730469 230.433594 56.636719 240.484375 61.519531 C 250.144531 66.210938 258.6875 74.367188 260.445312 85.378906 C 262.167969 96.1875 258.214844 107.699219 252.71875 116.886719 " fill-opacity="1" fill-rule="nonzero"/></g></g></g><g clip-path="url(#804a4f9bf9)"><g clip-path="url(#99e50ec0f5)"><g clip-path="url(#1bce78bcbc)"><path fill="#ffc736" d="M 212.472656 140.378906 C 209.167969 137.835938 210.265625 132.316406 205.480469 135.070312 C 204.96875 135.367188 196.320312 151.019531 196.273438 151.84375 C 195.570312 163.800781 217.46875 144.222656 212.472656 140.378906 Z M 230.351562 70.285156 C 232.914062 69.753906 239.765625 73.050781 242.324219 71.09375 C 246.390625 67.984375 240.71875 64.417969 237.769531 63.058594 C 229.070312 59.050781 226.476562 71.085938 230.351562 70.285156 Z M 253.980469 96.996094 C 249.535156 110.703125 239.554688 125.976562 226.855469 133.398438 C 223.1875 135.542969 216.054688 138.9375 214.160156 133.058594 C 213.070312 129.6875 220.007812 117.429688 220.925781 114.25 C 223.347656 105.867188 224.066406 97.371094 225.789062 88.871094 C 227.222656 81.789062 228.933594 79.898438 236.183594 79.234375 C 249.765625 77.984375 258.832031 82.039062 253.980469 96.996094 " fill-opacity="1" fill-rule="nonzero"/></g></g></g><g clip-path="url(#e5aeb993ac)"><g clip-path="url(#00cfca8ec1)"><g clip-path="url(#6da0ffd005)"><path fill="#9f785a" d="M 203.953125 181.914062 C 203.007812 184.429688 200.699219 186.457031 198.074219 186.128906 C 198.140625 188.894531 195.882812 191.097656 193.25 191.917969 C 192.546875 194.277344 191.246094 196.214844 188.679688 197.144531 C 185.730469 198.214844 182.371094 197.710938 179.457031 196.785156 C 175.3125 195.46875 167.070312 190.605469 169.222656 185.3125 C 167.925781 184.496094 166.699219 183.519531 165.980469 182.191406 C 165.234375 180.820312 165.183594 179.195312 166.257812 177.976562 C 166.96875 177.171875 167.894531 176.773438 168.882812 176.570312 C 166.800781 174.65625 165.441406 172.054688 165.992188 169.082031 C 166.464844 166.53125 168.539062 164.582031 171.023438 164.328125 C 169.882812 161.507812 169.019531 158.433594 170.347656 155.523438 C 171.214844 153.621094 173.058594 152.339844 175.039062 152.269531 C 175.195312 152.125 175.410156 152.0625 175.640625 152.167969 C 175.757812 152.222656 175.878906 152.277344 175.992188 152.332031 C 176.351562 152.394531 176.714844 152.488281 177.070312 152.636719 C 177.285156 152.726562 177.429688 152.871094 177.519531 153.035156 C 181.15625 154.6875 184.847656 156.195312 188.65625 157.398438 C 193.003906 158.773438 197.402344 159.53125 201.847656 160.460938 C 204.792969 161.082031 207.769531 162.867188 207.589844 166.261719 C 207.429688 169.238281 205.730469 171.832031 203.433594 173.605469 C 204.863281 176.117188 204.984375 179.183594 203.953125 181.914062 " fill-opacity="1" fill-rule="nonzero"/></g></g></g><g clip-path="url(#be57f55ec5)"><g clip-path="url(#fe8ad3f0fc)"><g clip-path="url(#17cb163c52)"><g clip-path="url(#edaedd48cb)"><path fill="#2e2e30" d="M 191.710938 192.09375 C 188.101562 193.15625 184.789062 192.269531 181.3125 191.128906 C 177.460938 189.863281 174.09375 188.179688 170.699219 185.984375 C 170.199219 185.664062 169.558594 186.347656 170 186.792969 C 173.027344 189.855469 177.542969 191.347656 181.527344 192.6875 C 184.847656 193.804688 188.820312 195.039062 192.136719 193.289062 C 192.757812 192.960938 192.429688 191.882812 191.710938 192.09375 Z M 196.546875 184.972656 C 194.433594 184.589844 192.203125 184.710938 190.0625 184.425781 C 187.746094 184.113281 185.453125 183.621094 183.207031 182.964844 C 178.851562 181.683594 174.789062 179.707031 170.929688 177.335938 C 170.25 176.921875 169.59375 177.910156 170.246094 178.367188 C 174.160156 181.09375 178.527344 183.113281 183.085938 184.5 C 187.164062 185.742188 192.398438 187.128906 196.667969 186.421875 C 197.5625 186.277344 197.292969 185.109375 196.546875 184.972656 Z M 186.925781 171.707031 C 191.171875 172.867188 196.34375 174.34375 200.765625 173.832031 C 201.371094 173.761719 201.40625 172.789062 200.828125 172.648438 C 198.75 172.136719 196.535156 172.136719 194.417969 171.816406 C 191.921875 171.4375 189.441406 170.925781 187.011719 170.25 C 182.4375 168.984375 178.300781 166.953125 173.917969 165.207031 C 173.300781 164.957031 172.871094 165.894531 173.414062 166.246094 C 177.414062 168.855469 182.351562 170.464844 186.925781 171.707031 Z M 231.390625 108.082031 C 231.4375 107.6875 231.027344 107.265625 230.292969 106.953125 C 230.1875 106.910156 230.082031 106.871094 229.972656 106.835938 C 228.269531 106.277344 226.175781 106.839844 224.625 107.621094 C 225.355469 108.175781 226.164062 108.605469 226.984375 108.871094 C 227.9375 109.183594 228.863281 109.265625 229.738281 109.113281 C 230.820312 108.925781 231.347656 108.460938 231.390625 108.082031 Z M 220.554688 106.710938 L 220.503906 106.671875 L 220.472656 106.621094 C 220.109375 106.035156 219.800781 105.410156 219.546875 104.769531 C 219.101562 103.660156 218.804688 102.449219 218.664062 101.160156 C 217.105469 101.617188 215.503906 101.605469 214.007812 101.117188 C 211.65625 100.351562 209.792969 98.472656 208.941406 96.039062 C 206.484375 97.664062 203.980469 98.175781 201.84375 97.480469 C 201.0625 97.226562 200.335938 96.808594 199.671875 96.242188 C 198.902344 97.65625 198.15625 98.757812 197.347656 99.691406 C 197.179688 99.878906 196.941406 100.09375 196.6875 100.324219 C 196.34375 100.628906 195.769531 101.140625 195.726562 101.367188 C 195.660156 101.6875 196.035156 102.589844 196.308594 103.246094 C 196.546875 103.820312 196.769531 104.363281 196.84375 104.761719 C 197.054688 105.914062 197.148438 107.191406 197.136719 108.660156 C 197.085938 114.171875 195.582031 119.675781 194.175781 124.402344 C 192.644531 129.5625 190.816406 134.722656 189.046875 139.714844 C 188.632812 140.882812 188.222656 142.046875 187.8125 143.210938 C 186.789062 146.121094 185.707031 149.140625 184.597656 152.1875 C 184.535156 152.363281 184.4375 152.683594 184.316406 153.085938 C 184.175781 153.542969 184.039062 154 183.894531 154.445312 C 186.261719 155.351562 188.632812 156.238281 191.078125 156.972656 C 194.078125 157.875 197.101562 158.558594 200.144531 159.199219 C 200.332031 157.78125 200.867188 155.996094 201.445312 154.199219 C 201.609375 153.691406 201.75 153.253906 201.820312 152.984375 C 203.347656 147.125 205.375 140.914062 208.191406 133.429688 C 208.714844 132.039062 209.230469 130.636719 209.75 129.230469 C 211.4375 124.652344 213.183594 119.917969 215.226562 115.449219 C 215.976562 113.800781 216.660156 112.507812 217.378906 111.371094 C 217.609375 111.007812 218.015625 110.507812 218.484375 109.921875 C 219.160156 109.085938 220.742188 107.125 220.554688 106.710938 Z M 199.351562 91.484375 C 199.421875 91.339844 199.5 91.1875 199.578125 91.03125 C 200.566406 89.035156 202.058594 86.019531 201.683594 84.242188 C 201.5625 83.671875 201.261719 83.257812 200.878906 83.132812 C 200.59375 83.042969 200.269531 83.101562 199.902344 83.3125 C 199.105469 83.765625 199 85.324219 198.9375 86.253906 L 198.921875 86.453125 C 198.777344 88.449219 198.917969 90.105469 199.351562 91.484375 Z M 210.777344 91.457031 C 211.886719 90.492188 213.136719 89.332031 213.695312 88.074219 C 213.9375 87.523438 214.039062 86.523438 213.808594 86.011719 C 213.753906 85.886719 213.6875 85.8125 213.609375 85.789062 C 213.535156 85.761719 213.308594 85.742188 212.835938 86.082031 C 211.347656 87.152344 210.878906 89.457031 210.777344 91.457031 Z M 221.175781 97.203125 C 223.644531 95.542969 224.996094 94.015625 225.203125 92.652344 C 225.324219 91.835938 224.855469 90.933594 224.191406 90.714844 C 223.65625 90.542969 223.230469 90.914062 222.960938 91.257812 C 222.070312 92.40625 221.472656 94.40625 221.175781 97.203125 Z M 191.8125 100.363281 C 191.421875 100.066406 190.984375 99.839844 190.523438 99.6875 C 189.652344 99.40625 188.796875 99.425781 188.066406 99.746094 C 188.398438 100.0625 188.78125 100.292969 189.214844 100.433594 C 190.109375 100.726562 191.054688 100.59375 191.8125 100.363281 Z M 233.707031 108.445312 C 233.359375 110.191406 231.378906 111.925781 228.386719 111.695312 C 227.734375 111.648438 227.054688 111.507812 226.363281 111.285156 C 225.925781 111.140625 225.476562 110.960938 225.035156 110.75 C 224.761719 110.621094 224.351562 110.289062 223.871094 109.910156 C 223.40625 109.535156 222.765625 109.023438 222.5 108.9375 C 221.847656 108.914062 220.566406 110.023438 218.121094 115.445312 L 217.972656 115.773438 C 212.1875 128.386719 207.460938 141.523438 203.925781 154.820312 C 203.890625 154.960938 203.828125 155.273438 203.75 155.667969 C 203.46875 157.089844 203.152344 158.570312 202.769531 159.742188 C 203.304688 159.855469 203.835938 159.964844 204.371094 160.074219 C 205.210938 160.25 204.9375 161.664062 204.101562 161.550781 C 199.546875 160.949219 195 159.746094 190.613281 158.40625 C 186.25 157.074219 181.75 155.578125 177.722656 153.421875 C 177.089844 153.085938 177.609375 152.070312 178.257812 152.304688 C 179.304688 152.683594 180.339844 153.078125 181.375 153.476562 C 182.082031 151.320312 183.195312 148.378906 184.777344 144.421875 C 185.203125 143.359375 185.539062 142.519531 185.667969 142.148438 C 187.378906 137.207031 189.371094 131.371094 191.179688 125.546875 C 192.71875 120.597656 194.167969 115.257812 194.359375 109.761719 C 194.363281 109.585938 194.375 109.363281 194.390625 109.109375 C 194.472656 107.515625 194.667969 103.785156 193.636719 102.894531 C 193.636719 102.890625 193.617188 102.875 193.558594 102.855469 C 193.203125 102.738281 192.375 102.804688 191.574219 102.867188 C 190.414062 102.957031 189.101562 103.0625 188.191406 102.765625 C 188.125 102.742188 188.0625 102.71875 188 102.695312 C 186.722656 102.160156 185.1875 101.0625 185.074219 99.71875 C 185.023438 99.164062 185.210938 98.347656 186.378906 97.605469 C 187.726562 96.746094 189.417969 96.582031 191.132812 97.144531 C 191.316406 97.203125 191.496094 97.269531 191.671875 97.34375 C 192.0625 97.507812 192.476562 97.851562 192.875 98.1875 C 193.253906 98.503906 193.644531 98.832031 193.921875 98.921875 C 193.9375 98.925781 193.957031 98.929688 193.972656 98.933594 C 194.550781 99.054688 195.140625 98.34375 195.710938 97.660156 L 196.042969 97.261719 C 196.582031 96.621094 197.320312 95.746094 197.554688 95.027344 C 197.863281 94.085938 197.746094 93.792969 197.457031 93.089844 C 197.351562 92.824219 197.226562 92.519531 197.101562 92.125 C 196.382812 89.851562 195.863281 84.53125 197.84375 81.945312 C 198.617188 80.941406 199.671875 80.460938 200.984375 80.519531 C 201.382812 80.539062 201.753906 80.601562 202.078125 80.707031 C 202.851562 80.957031 203.417969 81.457031 203.753906 82.183594 C 204.734375 84.292969 203.515625 87.800781 202.945312 89.207031 C 202.8125 89.539062 202.511719 90.085938 202.164062 90.722656 C 201.65625 91.648438 200.597656 93.585938 200.699219 93.988281 C 200.894531 94.625 201.566406 94.964844 202.097656 95.140625 C 203.140625 95.480469 204.53125 95.464844 205.269531 95.253906 C 206.164062 94.996094 207.296875 94.488281 207.804688 93.925781 C 208.378906 93.285156 208.390625 92.746094 208.40625 91.925781 C 208.414062 91.585938 208.421875 91.199219 208.476562 90.765625 C 208.828125 87.925781 209.691406 85.871094 211.039062 84.660156 C 212.015625 83.789062 213.59375 83.101562 214.917969 83.535156 C 215.429688 83.703125 215.867188 84.023438 216.207031 84.480469 C 217.691406 86.492188 216.027344 89.222656 215.242188 90.300781 C 214.886719 90.796875 214.101562 91.433594 213.269531 92.109375 C 212.324219 92.875 211.035156 93.925781 210.914062 94.4375 C 210.671875 95.496094 212.433594 97.570312 213.441406 98.246094 C 213.761719 98.460938 214.207031 98.664062 214.6875 98.824219 C 216.195312 99.3125 218.074219 99.367188 218.632812 98.320312 C 219 97.628906 219.0625 96.523438 219.125 95.453125 C 219.179688 94.53125 219.234375 93.578125 219.480469 92.8125 C 219.882812 91.582031 220.75 90.296875 221.800781 89.378906 C 223.015625 88.320312 224.257812 87.925781 225.304688 88.269531 C 226.253906 88.578125 226.96875 89.453125 227.433594 90.871094 C 228.089844 92.875 227.289062 95.078125 225.117188 97.246094 L 222.628906 99.230469 C 222.382812 99.394531 222.167969 99.523438 221.984375 99.632812 C 221.199219 100.101562 221.152344 100.128906 221.199219 101.386719 C 221.246094 102.539062 221.777344 103.8125 222.089844 104.472656 C 222.265625 104.84375 222.5625 105.46875 222.714844 105.515625 C 222.789062 105.542969 222.992188 105.484375 223.226562 105.414062 C 223.410156 105.359375 223.628906 105.296875 223.902344 105.234375 C 224.4375 105.113281 224.945312 104.964844 225.4375 104.820312 C 226.859375 104.40625 228.203125 104.015625 229.953125 104.34375 C 230.289062 104.410156 230.613281 104.488281 230.910156 104.585938 C 233.375 105.390625 233.96875 107.105469 233.707031 108.445312 Z M 251.1875 162.738281 C 249.40625 159.925781 247.335938 157.300781 245.570312 154.46875 C 243.875 151.761719 242.5 148.816406 240.640625 146.214844 C 240.050781 145.390625 238.589844 146.160156 238.878906 147.113281 C 239.835938 150.261719 241.695312 153.171875 243.460938 155.929688 C 245.246094 158.710938 247.125 161.570312 249.464844 163.914062 C 250.261719 164.707031 251.859375 163.804688 251.1875 162.738281 Z M 277.789062 145.910156 C 275.429688 142.640625 272.492188 139.757812 269.679688 136.878906 C 267.105469 134.242188 264.34375 130.691406 261.027344 128.992188 C 260.125 128.53125 258.761719 129.371094 259.398438 130.445312 C 261.308594 133.679688 264.792969 136.230469 267.433594 138.875 C 270.289062 141.734375 272.980469 144.816406 276.023438 147.476562 C 277.164062 148.472656 278.691406 147.160156 277.789062 145.910156 Z M 274.5625 94.375 C 277.703125 94.867188 280.972656 94.785156 284.144531 94.886719 C 287.320312 94.988281 290.574219 95.265625 293.742188 95.046875 C 295.152344 94.953125 295.273438 93.042969 293.847656 92.84375 C 290.574219 92.386719 287.175781 92.445312 283.878906 92.324219 C 280.726562 92.210938 277.527344 91.9375 274.378906 92.207031 C 273.046875 92.320312 273.441406 94.199219 274.5625 94.375 Z M 277.027344 52.589844 C 278.121094 51.789062 276.722656 50.277344 275.640625 51.03125 C 272.601562 53.148438 269.519531 55.21875 266.402344 57.222656 C 263.574219 59.042969 260.523438 60.664062 257.871094 62.734375 C 256.910156 63.484375 257.996094 64.898438 259.027344 64.433594 C 262.324219 62.9375 265.398438 60.65625 268.398438 58.644531 C 271.316406 56.6875 274.1875 54.664062 277.027344 52.589844 Z M 226.921875 47.082031 C 228.425781 43.917969 229.039062 40.15625 230.054688 36.800781 C 231.09375 33.367188 232.234375 29.972656 233.320312 26.554688 C 233.722656 25.285156 231.867188 24.710938 231.371094 25.921875 C 229.964844 29.355469 228.761719 32.878906 227.625 36.414062 C 226.574219 39.683594 225.128906 43.265625 224.875 46.710938 C 224.78125 47.988281 226.453125 48.078125 226.921875 47.082031 Z M 179.554688 36.5 C 178.378906 33.125 177.390625 29.535156 175.859375 26.300781 C 175.335938 25.191406 173.574219 25.824219 173.84375 27.019531 C 174.664062 30.65625 176.15625 34.242188 177.363281 37.769531 C 178.511719 41.121094 179.421875 44.816406 181.085938 47.957031 C 181.648438 49.023438 183.265625 48.433594 183.054688 47.253906 C 182.40625 43.617188 180.765625 39.984375 179.554688 36.5 Z M 155.261719 69.210938 C 157.441406 70.238281 159.679688 71.492188 162.035156 72.03125 C 163.308594 72.324219 164.191406 70.730469 163.058594 69.917969 C 161.292969 68.660156 159.171875 67.855469 157.21875 66.9375 C 154.878906 65.84375 152.546875 64.726562 150.226562 63.59375 C 146.0625 61.558594 141.980469 59.316406 137.757812 57.40625 C 136.503906 56.839844 135.578125 58.855469 136.714844 59.570312 C 140.738281 62.113281 145.078125 64.21875 149.332031 66.339844 C 151.296875 67.320312 153.273438 68.277344 155.261719 69.210938 Z M 153.550781 109.734375 C 150.085938 110.75 146.445312 111.199219 142.921875 111.980469 C 139.652344 112.703125 136.109375 114.171875 132.777344 114.28125 C 131.660156 114.316406 131.535156 112.796875 132.351562 112.316406 C 133.875 111.421875 135.746094 111.089844 137.445312 110.648438 C 139.199219 110.191406 140.957031 109.765625 142.726562 109.371094 C 146.214844 108.601562 149.796875 107.75 153.378906 107.679688 C 154.628906 107.652344 154.609375 109.421875 153.550781 109.734375 " fill-opacity="1" fill-rule="nonzero"/></g></g></g></g><g clip-path="url(#c1cb72185b)"><g clip-path="url(#eaf1a99290)"><g clip-path="url(#c8eb6664c5)"><path fill="#f4d4b7" d="M 174.132812 103.449219 C 174.097656 101.8125 174.394531 100.238281 173.992188 98.636719 C 173.894531 98.246094 173.378906 98.144531 173.148438 98.480469 C 171.222656 101.226562 171.363281 105.359375 172.023438 108.519531 C 172.566406 111.113281 173.398438 115.324219 176.027344 116.53125 C 176.351562 116.675781 176.773438 116.417969 176.871094 116.101562 C 177.609375 113.621094 175.53125 110.664062 174.90625 108.308594 C 174.484375 106.726562 174.171875 105.085938 174.132812 103.449219 Z M 195.632812 67.6875 C 191.207031 68.742188 187.394531 71.539062 184.496094 74.984375 C 181.035156 79.109375 179.5625 84.140625 176.808594 88.652344 C 176.164062 89.710938 174.1875 89.171875 174.390625 87.867188 C 175.273438 82.257812 178.570312 76.507812 182.304688 72.304688 C 185.675781 68.511719 190.03125 65.882812 195.046875 64.992188 C 196.796875 64.679688 197.359375 67.273438 195.632812 67.6875 " fill-opacity="1" fill-rule="nonzero"/></g></g></g><g fill="#000000" fill-opacity="1"><g transform="translate(118.491851, 244.225717)"><g><path d="M 1.25 -3.890625 C 1.25 -2.691406 1.242188 -1.847656 1.234375 -1.359375 C 1.222656 -0.867188 1.207031 -0.363281 1.1875 0.15625 C 1.132812 0.175781 1.0625 0.191406 0.96875 0.203125 C 0.875 0.210938 0.769531 0.21875 0.65625 0.21875 C 0.664062 -0.832031 0.660156 -1.820312 0.640625 -2.75 C 0.617188 -3.675781 0.582031 -4.535156 0.53125 -5.328125 C 0.59375 -5.359375 0.660156 -5.378906 0.734375 -5.390625 C 0.804688 -5.410156 0.878906 -5.421875 0.953125 -5.421875 C 0.992188 -5.421875 1.035156 -5.421875 1.078125 -5.421875 C 1.117188 -5.421875 1.160156 -5.414062 1.203125 -5.40625 C 1.222656 -5.175781 1.234375 -4.945312 1.234375 -4.71875 C 1.242188 -4.488281 1.25 -4.210938 1.25 -3.890625 Z M 1.25 -3.890625 "/></g></g></g><g fill="#000000" fill-opacity="1"><g transform="translate(120.366626, 244.225717)"><g><path d="M 1 -1.328125 C 1 -1.078125 1.003906 -0.796875 1.015625 -0.484375 C 1.023438 -0.171875 1.039062 0.0546875 1.0625 0.203125 C 0.988281 0.222656 0.90625 0.238281 0.8125 0.25 C 0.71875 0.269531 0.625 0.28125 0.53125 0.28125 C 0.5 -0.269531 0.46875 -0.988281 0.4375 -1.875 C 0.414062 -2.769531 0.40625 -3.523438 0.40625 -4.140625 C 0.457031 -4.171875 0.519531 -4.191406 0.59375 -4.203125 C 0.664062 -4.222656 0.742188 -4.234375 0.828125 -4.234375 C 0.878906 -4.234375 0.925781 -4.226562 0.96875 -4.21875 C 1.019531 -4.21875 1.078125 -4.210938 1.140625 -4.203125 C 1.128906 -4.109375 1.113281 -3.953125 1.09375 -3.734375 C 1.082031 -3.523438 1.070312 -3.390625 1.0625 -3.328125 C 1.238281 -3.617188 1.425781 -3.835938 1.625 -3.984375 C 1.820312 -4.128906 2.03125 -4.203125 2.25 -4.203125 C 2.582031 -4.203125 2.820312 -4.078125 2.96875 -3.828125 C 3.125 -3.585938 3.203125 -3.210938 3.203125 -2.703125 C 3.203125 -2.285156 3.164062 -1.816406 3.09375 -1.296875 C 3.03125 -0.785156 2.960938 -0.382812 2.890625 -0.09375 C 2.804688 -0.09375 2.710938 -0.101562 2.609375 -0.125 C 2.503906 -0.144531 2.410156 -0.164062 2.328125 -0.1875 C 2.421875 -0.707031 2.488281 -1.171875 2.53125 -1.578125 C 2.570312 -1.984375 2.59375 -2.363281 2.59375 -2.71875 C 2.59375 -3.050781 2.550781 -3.289062 2.46875 -3.4375 C 2.382812 -3.59375 2.25 -3.671875 2.0625 -3.671875 C 1.875 -3.671875 1.6875 -3.578125 1.5 -3.390625 C 1.320312 -3.203125 1.164062 -2.945312 1.03125 -2.625 C 1.019531 -2.238281 1.007812 -1.957031 1 -1.78125 C 1 -1.613281 1 -1.460938 1 -1.328125 Z M 1 -1.328125 "/></g></g></g><g fill="#000000" fill-opacity="1"><g transform="translate(124.044376, 244.225717)"><g><path d="M 3.140625 0.265625 C 3.078125 0.285156 3 0.300781 2.90625 0.3125 C 2.820312 0.320312 2.75 0.328125 2.6875 0.328125 C 2.664062 0.160156 2.648438 -0.00390625 2.640625 -0.171875 C 2.628906 -0.347656 2.625 -0.519531 2.625 -0.6875 C 2.519531 -0.375 2.382812 -0.144531 2.21875 0 C 2.050781 0.15625 1.84375 0.234375 1.59375 0.234375 C 1.1875 0.234375 0.863281 0.046875 0.625 -0.328125 C 0.382812 -0.710938 0.265625 -1.222656 0.265625 -1.859375 C 0.265625 -2.554688 0.421875 -3.113281 0.734375 -3.53125 C 1.054688 -3.945312 1.476562 -4.15625 2 -4.15625 C 2.082031 -4.15625 2.171875 -4.148438 2.265625 -4.140625 C 2.359375 -4.128906 2.441406 -4.113281 2.515625 -4.09375 C 2.503906 -4.59375 2.5 -4.945312 2.5 -5.15625 C 2.5 -5.363281 2.5 -5.550781 2.5 -5.71875 C 2.550781 -5.738281 2.613281 -5.753906 2.6875 -5.765625 C 2.757812 -5.785156 2.828125 -5.796875 2.890625 -5.796875 C 2.941406 -5.796875 2.988281 -5.789062 3.03125 -5.78125 C 3.082031 -5.78125 3.132812 -5.773438 3.1875 -5.765625 C 3.164062 -5.429688 3.144531 -4.957031 3.125 -4.34375 C 3.113281 -3.726562 3.109375 -2.601562 3.109375 -0.96875 C 3.109375 -0.726562 3.109375 -0.519531 3.109375 -0.34375 C 3.117188 -0.164062 3.128906 0.0351562 3.140625 0.265625 Z M 0.875 -1.953125 C 0.875 -1.398438 0.941406 -0.972656 1.078125 -0.671875 C 1.222656 -0.367188 1.425781 -0.21875 1.6875 -0.21875 C 1.914062 -0.21875 2.101562 -0.347656 2.25 -0.609375 C 2.40625 -0.878906 2.515625 -1.269531 2.578125 -1.78125 C 2.566406 -2.082031 2.554688 -2.390625 2.546875 -2.703125 C 2.535156 -3.023438 2.523438 -3.347656 2.515625 -3.671875 C 2.453125 -3.691406 2.382812 -3.707031 2.3125 -3.71875 C 2.238281 -3.726562 2.160156 -3.734375 2.078125 -3.734375 C 1.710938 -3.734375 1.421875 -3.570312 1.203125 -3.25 C 0.984375 -2.9375 0.875 -2.503906 0.875 -1.953125 Z M 0.875 -1.953125 "/></g></g></g><g fill="#000000" fill-opacity="1"><g transform="translate(127.722126, 244.225717)"><g><path d="M 1.21875 -5.921875 C 1.289062 -5.910156 1.351562 -5.898438 1.40625 -5.890625 C 1.46875 -5.878906 1.519531 -5.859375 1.5625 -5.828125 C 1.507812 -5.710938 1.453125 -5.570312 1.390625 -5.40625 C 1.335938 -5.25 1.296875 -5.09375 1.265625 -4.9375 C 1.210938 -4.925781 1.140625 -4.914062 1.046875 -4.90625 C 0.953125 -4.90625 0.859375 -4.910156 0.765625 -4.921875 C 0.753906 -4.960938 0.75 -5.003906 0.75 -5.046875 C 0.75 -5.085938 0.75 -5.128906 0.75 -5.171875 C 0.75 -5.285156 0.757812 -5.40625 0.78125 -5.53125 C 0.800781 -5.65625 0.832031 -5.765625 0.875 -5.859375 C 0.9375 -5.890625 0.988281 -5.90625 1.03125 -5.90625 C 1.082031 -5.914062 1.144531 -5.921875 1.21875 -5.921875 Z M 0.59375 -3.96875 C 0.65625 -4.007812 0.71875 -4.039062 0.78125 -4.0625 C 0.851562 -4.082031 0.925781 -4.09375 1 -4.09375 C 1.039062 -4.09375 1.078125 -4.085938 1.109375 -4.078125 C 1.148438 -4.078125 1.191406 -4.070312 1.234375 -4.0625 C 1.117188 -3.5 1.039062 -2.84375 1 -2.09375 C 0.957031 -1.34375 0.957031 -0.640625 1 0.015625 C 0.96875 0.0351562 0.921875 0.0507812 0.859375 0.0625 C 0.804688 0.0703125 0.75 0.078125 0.6875 0.078125 C 0.65625 0.078125 0.628906 0.0703125 0.609375 0.0625 C 0.585938 0.0625 0.5625 0.0625 0.53125 0.0625 C 0.4375 -0.613281 0.394531 -1.3125 0.40625 -2.03125 C 0.425781 -2.757812 0.488281 -3.40625 0.59375 -3.96875 Z M 0.59375 -3.96875 "/></g></g></g><g fill="#000000" fill-opacity="1"><g transform="translate(129.365543, 244.225717)"><g><path d="M 3.15625 -2.71875 C 3.15625 -2.375 3.101562 -1.910156 3 -1.328125 C 2.90625 -0.742188 2.796875 -0.210938 2.671875 0.265625 C 2.585938 0.265625 2.5 0.253906 2.40625 0.234375 C 2.320312 0.222656 2.234375 0.207031 2.140625 0.1875 C 2.148438 0.164062 2.15625 0.140625 2.15625 0.109375 C 2.164062 0.078125 2.179688 0.0351562 2.203125 -0.015625 C 2.210938 -0.0976562 2.222656 -0.15625 2.234375 -0.1875 C 2.242188 -0.226562 2.253906 -0.265625 2.265625 -0.296875 C 2.148438 -0.222656 2.019531 -0.164062 1.875 -0.125 C 1.738281 -0.0820312 1.585938 -0.0625 1.421875 -0.0625 C 1.066406 -0.0625 0.773438 -0.15625 0.546875 -0.34375 C 0.328125 -0.539062 0.21875 -0.800781 0.21875 -1.125 C 0.21875 -1.46875 0.363281 -1.726562 0.65625 -1.90625 C 0.945312 -2.09375 1.378906 -2.1875 1.953125 -2.1875 C 2.035156 -2.1875 2.113281 -2.179688 2.1875 -2.171875 C 2.269531 -2.171875 2.378906 -2.164062 2.515625 -2.15625 C 2.515625 -2.21875 2.515625 -2.28125 2.515625 -2.34375 C 2.515625 -2.40625 2.515625 -2.503906 2.515625 -2.640625 C 2.515625 -3.066406 2.460938 -3.375 2.359375 -3.5625 C 2.265625 -3.757812 2.097656 -3.859375 1.859375 -3.859375 C 1.609375 -3.859375 1.398438 -3.75 1.234375 -3.53125 C 1.066406 -3.3125 0.976562 -3.039062 0.96875 -2.71875 C 0.820312 -2.738281 0.703125 -2.769531 0.609375 -2.8125 C 0.523438 -2.863281 0.457031 -2.9375 0.40625 -3.03125 C 0.46875 -3.375 0.644531 -3.664062 0.9375 -3.90625 C 1.226562 -4.15625 1.5625 -4.28125 1.9375 -4.28125 C 2.332031 -4.28125 2.632812 -4.148438 2.84375 -3.890625 C 3.050781 -3.628906 3.15625 -3.238281 3.15625 -2.71875 Z M 0.84375 -1.109375 C 0.84375 -0.910156 0.90625 -0.753906 1.03125 -0.640625 C 1.164062 -0.523438 1.335938 -0.46875 1.546875 -0.46875 C 1.691406 -0.46875 1.832031 -0.488281 1.96875 -0.53125 C 2.101562 -0.570312 2.226562 -0.640625 2.34375 -0.734375 C 2.382812 -0.953125 2.414062 -1.144531 2.4375 -1.3125 C 2.46875 -1.488281 2.488281 -1.660156 2.5 -1.828125 C 1.945312 -1.859375 1.53125 -1.8125 1.25 -1.6875 C 0.976562 -1.570312 0.84375 -1.378906 0.84375 -1.109375 Z M 0.84375 -1.109375 "/></g></g></g><g fill="#000000" fill-opacity="1"><g transform="translate(132.971492, 244.225717)"><g><path d="M 1 -1.328125 C 1 -1.078125 1.003906 -0.796875 1.015625 -0.484375 C 1.023438 -0.171875 1.039062 0.0546875 1.0625 0.203125 C 0.988281 0.222656 0.90625 0.238281 0.8125 0.25 C 0.71875 0.269531 0.625 0.28125 0.53125 0.28125 C 0.5 -0.269531 0.46875 -0.988281 0.4375 -1.875 C 0.414062 -2.769531 0.40625 -3.523438 0.40625 -4.140625 C 0.457031 -4.171875 0.519531 -4.191406 0.59375 -4.203125 C 0.664062 -4.222656 0.742188 -4.234375 0.828125 -4.234375 C 0.878906 -4.234375 0.925781 -4.226562 0.96875 -4.21875 C 1.019531 -4.21875 1.078125 -4.210938 1.140625 -4.203125 C 1.128906 -4.109375 1.113281 -3.953125 1.09375 -3.734375 C 1.082031 -3.523438 1.070312 -3.390625 1.0625 -3.328125 C 1.238281 -3.617188 1.425781 -3.835938 1.625 -3.984375 C 1.820312 -4.128906 2.03125 -4.203125 2.25 -4.203125 C 2.582031 -4.203125 2.820312 -4.078125 2.96875 -3.828125 C 3.125 -3.585938 3.203125 -3.210938 3.203125 -2.703125 C 3.203125 -2.285156 3.164062 -1.816406 3.09375 -1.296875 C 3.03125 -0.785156 2.960938 -0.382812 2.890625 -0.09375 C 2.804688 -0.09375 2.710938 -0.101562 2.609375 -0.125 C 2.503906 -0.144531 2.410156 -0.164062 2.328125 -0.1875 C 2.421875 -0.707031 2.488281 -1.171875 2.53125 -1.578125 C 2.570312 -1.984375 2.59375 -2.363281 2.59375 -2.71875 C 2.59375 -3.050781 2.550781 -3.289062 2.46875 -3.4375 C 2.382812 -3.59375 2.25 -3.671875 2.0625 -3.671875 C 1.875 -3.671875 1.6875 -3.578125 1.5 -3.390625 C 1.320312 -3.203125 1.164062 -2.945312 1.03125 -2.625 C 1.019531 -2.238281 1.007812 -1.957031 1 -1.78125 C 1 -1.613281 1 -1.460938 1 -1.328125 Z M 1 -1.328125 "/></g></g></g><g fill="#000000" fill-opacity="1"><g transform="translate(136.649241, 244.225717)"><g/></g></g><g fill="#000000" fill-opacity="1"><g transform="translate(138.133101, 244.225717)"><g><path d="M 4.265625 -2.0625 C 4.265625 -1.445312 4.019531 -0.921875 3.53125 -0.484375 C 3.050781 -0.0546875 2.46875 0.15625 1.78125 0.15625 C 1.59375 0.15625 1.398438 0.128906 1.203125 0.078125 C 1.003906 0.0234375 0.832031 -0.0390625 0.6875 -0.125 C 0.644531 -1.019531 0.613281 -1.765625 0.59375 -2.359375 C 0.582031 -2.953125 0.578125 -3.597656 0.578125 -4.296875 C 0.578125 -4.359375 0.578125 -4.425781 0.578125 -4.5 C 0.578125 -4.570312 0.578125 -4.6875 0.578125 -4.84375 C 0.578125 -5.03125 0.578125 -5.175781 0.578125 -5.28125 C 0.578125 -5.394531 0.578125 -5.5 0.578125 -5.59375 C 0.796875 -5.695312 1.023438 -5.773438 1.265625 -5.828125 C 1.515625 -5.878906 1.765625 -5.90625 2.015625 -5.90625 C 2.597656 -5.90625 3.050781 -5.789062 3.375 -5.5625 C 3.695312 -5.332031 3.859375 -5.015625 3.859375 -4.609375 C 3.859375 -4.328125 3.78125 -4.078125 3.625 -3.859375 C 3.476562 -3.648438 3.253906 -3.472656 2.953125 -3.328125 C 3.378906 -3.265625 3.703125 -3.125 3.921875 -2.90625 C 4.148438 -2.695312 4.265625 -2.414062 4.265625 -2.0625 Z M 3.21875 -4.53125 C 3.21875 -4.832031 3.113281 -5.0625 2.90625 -5.21875 C 2.707031 -5.382812 2.410156 -5.46875 2.015625 -5.46875 C 1.898438 -5.46875 1.773438 -5.457031 1.640625 -5.4375 C 1.515625 -5.414062 1.390625 -5.390625 1.265625 -5.359375 C 1.234375 -5.054688 1.210938 -4.738281 1.203125 -4.40625 C 1.191406 -4.082031 1.1875 -3.691406 1.1875 -3.234375 C 1.894531 -3.304688 2.410156 -3.441406 2.734375 -3.640625 C 3.054688 -3.847656 3.21875 -4.144531 3.21875 -4.53125 Z M 1.234375 -0.421875 C 1.328125 -0.378906 1.425781 -0.34375 1.53125 -0.3125 C 1.644531 -0.289062 1.753906 -0.28125 1.859375 -0.28125 C 2.335938 -0.28125 2.75 -0.441406 3.09375 -0.765625 C 3.4375 -1.097656 3.609375 -1.484375 3.609375 -1.921875 C 3.609375 -2.265625 3.507812 -2.523438 3.3125 -2.703125 C 3.113281 -2.878906 2.804688 -2.96875 2.390625 -2.96875 C 2.203125 -2.96875 1.992188 -2.945312 1.765625 -2.90625 C 1.546875 -2.863281 1.351562 -2.8125 1.1875 -2.75 C 1.1875 -2.632812 1.1875 -2.519531 1.1875 -2.40625 C 1.1875 -2.289062 1.1875 -2.175781 1.1875 -2.0625 C 1.1875 -1.738281 1.191406 -1.445312 1.203125 -1.1875 C 1.210938 -0.9375 1.222656 -0.679688 1.234375 -0.421875 Z M 1.234375 -0.421875 "/></g></g></g><g fill="#000000" fill-opacity="1"><g transform="translate(142.712333, 244.225717)"><g><path d="M 1.5 0.078125 C 1.101562 0.078125 0.804688 -0.109375 0.609375 -0.484375 C 0.410156 -0.859375 0.3125 -1.414062 0.3125 -2.15625 C 0.3125 -2.53125 0.34375 -2.90625 0.40625 -3.28125 C 0.46875 -3.65625 0.539062 -3.925781 0.625 -4.09375 C 0.675781 -4.101562 0.722656 -4.113281 0.765625 -4.125 C 0.816406 -4.132812 0.867188 -4.140625 0.921875 -4.140625 C 0.960938 -4.140625 1.003906 -4.132812 1.046875 -4.125 C 1.085938 -4.113281 1.128906 -4.097656 1.171875 -4.078125 C 1.085938 -3.828125 1.023438 -3.535156 0.984375 -3.203125 C 0.941406 -2.867188 0.921875 -2.507812 0.921875 -2.125 C 0.921875 -1.613281 0.976562 -1.191406 1.09375 -0.859375 C 1.21875 -0.535156 1.378906 -0.375 1.578125 -0.375 C 1.828125 -0.375 2.015625 -0.5625 2.140625 -0.9375 C 2.273438 -1.320312 2.34375 -1.863281 2.34375 -2.5625 C 2.34375 -2.769531 2.332031 -2.988281 2.3125 -3.21875 C 2.289062 -3.445312 2.269531 -3.609375 2.25 -3.703125 C 2.332031 -3.742188 2.429688 -3.773438 2.546875 -3.796875 C 2.660156 -3.816406 2.769531 -3.828125 2.875 -3.828125 C 2.90625 -3.703125 2.925781 -3.550781 2.9375 -3.375 C 2.957031 -3.207031 2.96875 -3.035156 2.96875 -2.859375 C 2.96875 -1.910156 2.84375 -1.179688 2.59375 -0.671875 C 2.34375 -0.171875 1.976562 0.078125 1.5 0.078125 Z M 1.5 0.078125 "/></g></g></g><g fill="#000000" fill-opacity="1"><g transform="translate(145.98321, 244.225717)"><g><path d="M 1.21875 -5.921875 C 1.289062 -5.910156 1.351562 -5.898438 1.40625 -5.890625 C 1.46875 -5.878906 1.519531 -5.859375 1.5625 -5.828125 C 1.507812 -5.710938 1.453125 -5.570312 1.390625 -5.40625 C 1.335938 -5.25 1.296875 -5.09375 1.265625 -4.9375 C 1.210938 -4.925781 1.140625 -4.914062 1.046875 -4.90625 C 0.953125 -4.90625 0.859375 -4.910156 0.765625 -4.921875 C 0.753906 -4.960938 0.75 -5.003906 0.75 -5.046875 C 0.75 -5.085938 0.75 -5.128906 0.75 -5.171875 C 0.75 -5.285156 0.757812 -5.40625 0.78125 -5.53125 C 0.800781 -5.65625 0.832031 -5.765625 0.875 -5.859375 C 0.9375 -5.890625 0.988281 -5.90625 1.03125 -5.90625 C 1.082031 -5.914062 1.144531 -5.921875 1.21875 -5.921875 Z M 0.59375 -3.96875 C 0.65625 -4.007812 0.71875 -4.039062 0.78125 -4.0625 C 0.851562 -4.082031 0.925781 -4.09375 1 -4.09375 C 1.039062 -4.09375 1.078125 -4.085938 1.109375 -4.078125 C 1.148438 -4.078125 1.191406 -4.070312 1.234375 -4.0625 C 1.117188 -3.5 1.039062 -2.84375 1 -2.09375 C 0.957031 -1.34375 0.957031 -0.640625 1 0.015625 C 0.96875 0.0351562 0.921875 0.0507812 0.859375 0.0625 C 0.804688 0.0703125 0.75 0.078125 0.6875 0.078125 C 0.65625 0.078125 0.628906 0.0703125 0.609375 0.0625 C 0.585938 0.0625 0.5625 0.0625 0.53125 0.0625 C 0.4375 -0.613281 0.394531 -1.3125 0.40625 -2.03125 C 0.425781 -2.757812 0.488281 -3.40625 0.59375 -3.96875 Z M 0.59375 -3.96875 "/></g></g></g><g fill="#000000" fill-opacity="1"><g transform="translate(147.626627, 244.225717)"><g><path d="M 1.125 0.421875 C 1.0625 0.441406 0.972656 0.457031 0.859375 0.46875 C 0.742188 0.476562 0.648438 0.484375 0.578125 0.484375 C 0.492188 -0.703125 0.441406 -1.789062 0.421875 -2.78125 C 0.410156 -3.769531 0.4375 -4.785156 0.5 -5.828125 C 0.550781 -5.859375 0.609375 -5.878906 0.671875 -5.890625 C 0.742188 -5.910156 0.8125 -5.921875 0.875 -5.921875 C 0.925781 -5.921875 0.972656 -5.914062 1.015625 -5.90625 C 1.066406 -5.90625 1.125 -5.894531 1.1875 -5.875 C 1.101562 -5.050781 1.050781 -4.078125 1.03125 -2.953125 C 1.019531 -1.828125 1.050781 -0.703125 1.125 0.421875 Z M 1.125 0.421875 "/></g></g></g><g fill="#000000" fill-opacity="1"><g transform="translate(149.23813, 244.225717)"><g><path d="M 3.140625 0.265625 C 3.078125 0.285156 3 0.300781 2.90625 0.3125 C 2.820312 0.320312 2.75 0.328125 2.6875 0.328125 C 2.664062 0.160156 2.648438 -0.00390625 2.640625 -0.171875 C 2.628906 -0.347656 2.625 -0.519531 2.625 -0.6875 C 2.519531 -0.375 2.382812 -0.144531 2.21875 0 C 2.050781 0.15625 1.84375 0.234375 1.59375 0.234375 C 1.1875 0.234375 0.863281 0.046875 0.625 -0.328125 C 0.382812 -0.710938 0.265625 -1.222656 0.265625 -1.859375 C 0.265625 -2.554688 0.421875 -3.113281 0.734375 -3.53125 C 1.054688 -3.945312 1.476562 -4.15625 2 -4.15625 C 2.082031 -4.15625 2.171875 -4.148438 2.265625 -4.140625 C 2.359375 -4.128906 2.441406 -4.113281 2.515625 -4.09375 C 2.503906 -4.59375 2.5 -4.945312 2.5 -5.15625 C 2.5 -5.363281 2.5 -5.550781 2.5 -5.71875 C 2.550781 -5.738281 2.613281 -5.753906 2.6875 -5.765625 C 2.757812 -5.785156 2.828125 -5.796875 2.890625 -5.796875 C 2.941406 -5.796875 2.988281 -5.789062 3.03125 -5.78125 C 3.082031 -5.78125 3.132812 -5.773438 3.1875 -5.765625 C 3.164062 -5.429688 3.144531 -4.957031 3.125 -4.34375 C 3.113281 -3.726562 3.109375 -2.601562 3.109375 -0.96875 C 3.109375 -0.726562 3.109375 -0.519531 3.109375 -0.34375 C 3.117188 -0.164062 3.128906 0.0351562 3.140625 0.265625 Z M 0.875 -1.953125 C 0.875 -1.398438 0.941406 -0.972656 1.078125 -0.671875 C 1.222656 -0.367188 1.425781 -0.21875 1.6875 -0.21875 C 1.914062 -0.21875 2.101562 -0.347656 2.25 -0.609375 C 2.40625 -0.878906 2.515625 -1.269531 2.578125 -1.78125 C 2.566406 -2.082031 2.554688 -2.390625 2.546875 -2.703125 C 2.535156 -3.023438 2.523438 -3.347656 2.515625 -3.671875 C 2.453125 -3.691406 2.382812 -3.707031 2.3125 -3.71875 C 2.238281 -3.726562 2.160156 -3.734375 2.078125 -3.734375 C 1.710938 -3.734375 1.421875 -3.570312 1.203125 -3.25 C 0.984375 -2.9375 0.875 -2.503906 0.875 -1.953125 Z M 0.875 -1.953125 "/></g></g></g><g fill="#000000" fill-opacity="1"><g transform="translate(152.91588, 244.225717)"><g><path d="M 1.21875 -5.921875 C 1.289062 -5.910156 1.351562 -5.898438 1.40625 -5.890625 C 1.46875 -5.878906 1.519531 -5.859375 1.5625 -5.828125 C 1.507812 -5.710938 1.453125 -5.570312 1.390625 -5.40625 C 1.335938 -5.25 1.296875 -5.09375 1.265625 -4.9375 C 1.210938 -4.925781 1.140625 -4.914062 1.046875 -4.90625 C 0.953125 -4.90625 0.859375 -4.910156 0.765625 -4.921875 C 0.753906 -4.960938 0.75 -5.003906 0.75 -5.046875 C 0.75 -5.085938 0.75 -5.128906 0.75 -5.171875 C 0.75 -5.285156 0.757812 -5.40625 0.78125 -5.53125 C 0.800781 -5.65625 0.832031 -5.765625 0.875 -5.859375 C 0.9375 -5.890625 0.988281 -5.90625 1.03125 -5.90625 C 1.082031 -5.914062 1.144531 -5.921875 1.21875 -5.921875 Z M 0.59375 -3.96875 C 0.65625 -4.007812 0.71875 -4.039062 0.78125 -4.0625 C 0.851562 -4.082031 0.925781 -4.09375 1 -4.09375 C 1.039062 -4.09375 1.078125 -4.085938 1.109375 -4.078125 C 1.148438 -4.078125 1.191406 -4.070312 1.234375 -4.0625 C 1.117188 -3.5 1.039062 -2.84375 1 -2.09375 C 0.957031 -1.34375 0.957031 -0.640625 1 0.015625 C 0.96875 0.0351562 0.921875 0.0507812 0.859375 0.0625 C 0.804688 0.0703125 0.75 0.078125 0.6875 0.078125 C 0.65625 0.078125 0.628906 0.0703125 0.609375 0.0625 C 0.585938 0.0625 0.5625 0.0625 0.53125 0.0625 C 0.4375 -0.613281 0.394531 -1.3125 0.40625 -2.03125 C 0.425781 -2.757812 0.488281 -3.40625 0.59375 -3.96875 Z M 0.59375 -3.96875 "/></g></g></g><g fill="#000000" fill-opacity="1"><g transform="translate(154.559296, 244.225717)"><g><path d="M 1 -1.328125 C 1 -1.078125 1.003906 -0.796875 1.015625 -0.484375 C 1.023438 -0.171875 1.039062 0.0546875 1.0625 0.203125 C 0.988281 0.222656 0.90625 0.238281 0.8125 0.25 C 0.71875 0.269531 0.625 0.28125 0.53125 0.28125 C 0.5 -0.269531 0.46875 -0.988281 0.4375 -1.875 C 0.414062 -2.769531 0.40625 -3.523438 0.40625 -4.140625 C 0.457031 -4.171875 0.519531 -4.191406 0.59375 -4.203125 C 0.664062 -4.222656 0.742188 -4.234375 0.828125 -4.234375 C 0.878906 -4.234375 0.925781 -4.226562 0.96875 -4.21875 C 1.019531 -4.21875 1.078125 -4.210938 1.140625 -4.203125 C 1.128906 -4.109375 1.113281 -3.953125 1.09375 -3.734375 C 1.082031 -3.523438 1.070312 -3.390625 1.0625 -3.328125 C 1.238281 -3.617188 1.425781 -3.835938 1.625 -3.984375 C 1.820312 -4.128906 2.03125 -4.203125 2.25 -4.203125 C 2.582031 -4.203125 2.820312 -4.078125 2.96875 -3.828125 C 3.125 -3.585938 3.203125 -3.210938 3.203125 -2.703125 C 3.203125 -2.285156 3.164062 -1.816406 3.09375 -1.296875 C 3.03125 -0.785156 2.960938 -0.382812 2.890625 -0.09375 C 2.804688 -0.09375 2.710938 -0.101562 2.609375 -0.125 C 2.503906 -0.144531 2.410156 -0.164062 2.328125 -0.1875 C 2.421875 -0.707031 2.488281 -1.171875 2.53125 -1.578125 C 2.570312 -1.984375 2.59375 -2.363281 2.59375 -2.71875 C 2.59375 -3.050781 2.550781 -3.289062 2.46875 -3.4375 C 2.382812 -3.59375 2.25 -3.671875 2.0625 -3.671875 C 1.875 -3.671875 1.6875 -3.578125 1.5 -3.390625 C 1.320312 -3.203125 1.164062 -2.945312 1.03125 -2.625 C 1.019531 -2.238281 1.007812 -1.957031 1 -1.78125 C 1 -1.613281 1 -1.460938 1 -1.328125 Z M 1 -1.328125 "/></g></g></g><g fill="#000000" fill-opacity="1"><g transform="translate(158.237046, 244.225717)"><g><path d="M 0.984375 -2.046875 C 0.984375 -1.566406 1.050781 -1.1875 1.1875 -0.90625 C 1.320312 -0.632812 1.503906 -0.5 1.734375 -0.5 C 1.910156 -0.5 2.0625 -0.585938 2.1875 -0.765625 C 2.3125 -0.941406 2.421875 -1.21875 2.515625 -1.59375 C 2.503906 -2 2.472656 -2.363281 2.421875 -2.6875 C 2.378906 -3.019531 2.316406 -3.332031 2.234375 -3.625 C 2.179688 -3.644531 2.128906 -3.65625 2.078125 -3.65625 C 2.023438 -3.664062 1.96875 -3.671875 1.90625 -3.671875 C 1.59375 -3.671875 1.359375 -3.535156 1.203125 -3.265625 C 1.054688 -2.992188 0.984375 -2.585938 0.984375 -2.046875 Z M 3.140625 -1.34375 C 3.140625 -0.269531 3 0.546875 2.71875 1.109375 C 2.4375 1.679688 2.046875 1.96875 1.546875 1.96875 C 1.203125 1.96875 0.921875 1.851562 0.703125 1.625 C 0.484375 1.394531 0.34375 1.082031 0.28125 0.6875 C 0.363281 0.632812 0.453125 0.585938 0.546875 0.546875 C 0.640625 0.503906 0.738281 0.472656 0.84375 0.453125 C 0.894531 0.828125 0.976562 1.097656 1.09375 1.265625 C 1.21875 1.441406 1.382812 1.53125 1.59375 1.53125 C 1.851562 1.53125 2.0625 1.34375 2.21875 0.96875 C 2.382812 0.59375 2.484375 0.046875 2.515625 -0.671875 C 2.410156 -0.453125 2.285156 -0.289062 2.140625 -0.1875 C 2.003906 -0.0820312 1.84375 -0.03125 1.65625 -0.03125 C 1.25 -0.03125 0.925781 -0.207031 0.6875 -0.5625 C 0.445312 -0.925781 0.328125 -1.414062 0.328125 -2.03125 C 0.328125 -2.675781 0.472656 -3.1875 0.765625 -3.5625 C 1.054688 -3.9375 1.445312 -4.125 1.9375 -4.125 C 2.09375 -4.125 2.25 -4.101562 2.40625 -4.0625 C 2.570312 -4.03125 2.722656 -3.976562 2.859375 -3.90625 C 2.941406 -3.5625 3.007812 -3.148438 3.0625 -2.671875 C 3.113281 -2.203125 3.140625 -1.757812 3.140625 -1.34375 Z M 3.140625 -1.34375 "/></g></g></g><g fill="#000000" fill-opacity="1"><g transform="translate(161.842995, 244.225717)"><g/></g></g><g fill="#000000" fill-opacity="1"><g transform="translate(163.326855, 244.225717)"><g><path d="M 3.390625 -1.765625 C 3.484375 -1.773438 3.570312 -1.769531 3.65625 -1.75 C 3.738281 -1.738281 3.820312 -1.710938 3.90625 -1.671875 C 3.875 -1.023438 3.710938 -0.535156 3.421875 -0.203125 C 3.128906 0.117188 2.71875 0.28125 2.1875 0.28125 C 1.601562 0.28125 1.15625 0.0625 0.84375 -0.375 C 0.53125 -0.8125 0.375 -1.4375 0.375 -2.25 C 0.375 -3.226562 0.578125 -4.019531 0.984375 -4.625 C 1.390625 -5.226562 1.921875 -5.53125 2.578125 -5.53125 C 3.046875 -5.53125 3.382812 -5.378906 3.59375 -5.078125 C 3.8125 -4.773438 3.914062 -4.320312 3.90625 -3.71875 C 3.832031 -3.664062 3.742188 -3.625 3.640625 -3.59375 C 3.535156 -3.570312 3.414062 -3.566406 3.28125 -3.578125 C 3.320312 -4.109375 3.273438 -4.488281 3.140625 -4.71875 C 3.015625 -4.945312 2.789062 -5.0625 2.46875 -5.0625 C 2.070312 -5.0625 1.734375 -4.8125 1.453125 -4.3125 C 1.171875 -3.8125 1.03125 -3.164062 1.03125 -2.375 C 1.03125 -1.664062 1.132812 -1.125 1.34375 -0.75 C 1.5625 -0.375 1.875 -0.1875 2.28125 -0.1875 C 2.632812 -0.1875 2.910156 -0.328125 3.109375 -0.609375 C 3.304688 -0.890625 3.398438 -1.273438 3.390625 -1.765625 Z M 3.390625 -1.765625 "/></g></g></g><g fill="#000000" fill-opacity="1"><g transform="translate(167.690685, 244.225717)"><g><path d="M 0.234375 -1.9375 C 0.234375 -2.625 0.390625 -3.1875 0.703125 -3.625 C 1.023438 -4.0625 1.4375 -4.28125 1.9375 -4.28125 C 2.351562 -4.28125 2.679688 -4.125 2.921875 -3.8125 C 3.160156 -3.5 3.28125 -3.082031 3.28125 -2.5625 C 3.28125 -1.78125 3.128906 -1.144531 2.828125 -0.65625 C 2.523438 -0.164062 2.125 0.078125 1.625 0.078125 C 1.195312 0.078125 0.859375 -0.101562 0.609375 -0.46875 C 0.359375 -0.84375 0.234375 -1.332031 0.234375 -1.9375 Z M 2.640625 -2.21875 C 2.640625 -2.757812 2.566406 -3.160156 2.421875 -3.421875 C 2.285156 -3.691406 2.078125 -3.828125 1.796875 -3.828125 C 1.535156 -3.828125 1.3125 -3.648438 1.125 -3.296875 C 0.9375 -2.953125 0.84375 -2.523438 0.84375 -2.015625 C 0.84375 -1.546875 0.921875 -1.148438 1.078125 -0.828125 C 1.242188 -0.515625 1.460938 -0.359375 1.734375 -0.359375 C 1.972656 -0.359375 2.179688 -0.539062 2.359375 -0.90625 C 2.546875 -1.269531 2.640625 -1.707031 2.640625 -2.21875 Z M 2.640625 -2.21875 "/></g></g></g><g fill="#000000" fill-opacity="1"><g transform="translate(171.272694, 244.225717)"><g><path d="M 1 -1.328125 C 1 -1.023438 1.003906 -0.734375 1.015625 -0.453125 C 1.023438 -0.171875 1.039062 0.03125 1.0625 0.15625 C 0.988281 0.175781 0.90625 0.191406 0.8125 0.203125 C 0.71875 0.222656 0.625 0.234375 0.53125 0.234375 C 0.5 -0.390625 0.46875 -1.132812 0.4375 -2 C 0.40625 -2.875 0.390625 -3.597656 0.390625 -4.171875 C 0.441406 -4.191406 0.503906 -4.207031 0.578125 -4.21875 C 0.648438 -4.238281 0.726562 -4.25 0.8125 -4.25 C 0.882812 -4.25 0.941406 -4.242188 0.984375 -4.234375 C 1.035156 -4.234375 1.082031 -4.226562 1.125 -4.21875 C 1.125 -4.164062 1.113281 -4.0625 1.09375 -3.90625 C 1.082031 -3.75 1.066406 -3.539062 1.046875 -3.28125 C 1.210938 -3.539062 1.394531 -3.734375 1.59375 -3.859375 C 1.789062 -3.984375 2 -4.046875 2.21875 -4.046875 C 2.40625 -4.046875 2.5625 -4 2.6875 -3.90625 C 2.8125 -3.820312 2.910156 -3.6875 2.984375 -3.5 C 3.171875 -3.832031 3.367188 -4.078125 3.578125 -4.234375 C 3.785156 -4.398438 4.015625 -4.484375 4.265625 -4.484375 C 4.578125 -4.484375 4.804688 -4.363281 4.953125 -4.125 C 5.097656 -3.882812 5.171875 -3.507812 5.171875 -3 C 5.171875 -2.53125 5.125 -2 5.03125 -1.40625 C 4.945312 -0.8125 4.835938 -0.285156 4.703125 0.171875 C 4.609375 0.171875 4.503906 0.160156 4.390625 0.140625 C 4.285156 0.117188 4.195312 0.0976562 4.125 0.078125 C 4.269531 -0.503906 4.378906 -1.046875 4.453125 -1.546875 C 4.523438 -2.054688 4.5625 -2.546875 4.5625 -3.015625 C 4.5625 -3.347656 4.519531 -3.585938 4.4375 -3.734375 C 4.363281 -3.878906 4.238281 -3.953125 4.0625 -3.953125 C 3.882812 -3.953125 3.710938 -3.863281 3.546875 -3.6875 C 3.378906 -3.519531 3.226562 -3.28125 3.09375 -2.96875 C 3.101562 -2.875 3.109375 -2.796875 3.109375 -2.734375 C 3.109375 -2.671875 3.109375 -2.613281 3.109375 -2.5625 C 3.109375 -2.1875 3.078125 -1.757812 3.015625 -1.28125 C 2.953125 -0.800781 2.878906 -0.40625 2.796875 -0.09375 C 2.722656 -0.09375 2.632812 -0.101562 2.53125 -0.125 C 2.425781 -0.144531 2.332031 -0.164062 2.25 -0.1875 C 2.34375 -0.726562 2.410156 -1.179688 2.453125 -1.546875 C 2.492188 -1.910156 2.515625 -2.253906 2.515625 -2.578125 C 2.515625 -2.910156 2.472656 -3.148438 2.390625 -3.296875 C 2.316406 -3.441406 2.191406 -3.515625 2.015625 -3.515625 C 1.828125 -3.515625 1.644531 -3.429688 1.46875 -3.265625 C 1.289062 -3.109375 1.144531 -2.882812 1.03125 -2.59375 C 1.019531 -2.382812 1.007812 -2.164062 1 -1.9375 C 1 -1.71875 1 -1.515625 1 -1.328125 Z M 1 -1.328125 "/></g></g></g><g fill="#000000" fill-opacity="1"><g transform="translate(176.912966, 244.225717)"><g><path d="M 1.078125 -0.6875 C 1.140625 -0.625 1.207031 -0.578125 1.28125 -0.546875 C 1.351562 -0.515625 1.4375 -0.5 1.53125 -0.5 C 1.832031 -0.5 2.097656 -0.71875 2.328125 -1.15625 C 2.554688 -1.601562 2.671875 -2.15625 2.671875 -2.8125 C 2.671875 -3.144531 2.613281 -3.40625 2.5 -3.59375 C 2.394531 -3.789062 2.242188 -3.890625 2.046875 -3.890625 C 1.828125 -3.890625 1.628906 -3.785156 1.453125 -3.578125 C 1.285156 -3.367188 1.148438 -3.0625 1.046875 -2.65625 C 1.046875 -2.59375 1.046875 -2.519531 1.046875 -2.4375 C 1.046875 -2.363281 1.046875 -2.242188 1.046875 -2.078125 C 1.046875 -1.878906 1.046875 -1.675781 1.046875 -1.46875 C 1.054688 -1.257812 1.066406 -1 1.078125 -0.6875 Z M 1.109375 -0.140625 C 1.128906 0.171875 1.15625 0.472656 1.1875 0.765625 C 1.226562 1.054688 1.273438 1.359375 1.328125 1.671875 C 1.253906 1.703125 1.164062 1.722656 1.0625 1.734375 C 0.96875 1.742188 0.878906 1.75 0.796875 1.75 C 0.703125 1.070312 0.625 0.320312 0.5625 -0.5 C 0.507812 -1.332031 0.484375 -2.09375 0.484375 -2.78125 C 0.484375 -3.09375 0.488281 -3.375 0.5 -3.625 C 0.507812 -3.875 0.523438 -4.125 0.546875 -4.375 C 0.617188 -4.40625 0.695312 -4.429688 0.78125 -4.453125 C 0.863281 -4.472656 0.945312 -4.484375 1.03125 -4.484375 C 1.0625 -4.484375 1.09375 -4.476562 1.125 -4.46875 C 1.164062 -4.46875 1.210938 -4.460938 1.265625 -4.453125 C 1.234375 -4.296875 1.203125 -4.144531 1.171875 -4 C 1.148438 -3.851562 1.132812 -3.710938 1.125 -3.578125 C 1.257812 -3.859375 1.425781 -4.070312 1.625 -4.21875 C 1.832031 -4.363281 2.054688 -4.4375 2.296875 -4.4375 C 2.597656 -4.4375 2.84375 -4.289062 3.03125 -4 C 3.21875 -3.71875 3.3125 -3.335938 3.3125 -2.859375 C 3.3125 -2.066406 3.140625 -1.40625 2.796875 -0.875 C 2.453125 -0.34375 2.03125 -0.078125 1.53125 -0.078125 C 1.457031 -0.078125 1.382812 -0.0820312 1.3125 -0.09375 C 1.25 -0.101562 1.179688 -0.117188 1.109375 -0.140625 Z M 1.109375 -0.140625 "/></g></g></g><g fill="#000000" fill-opacity="1"><g transform="translate(180.526888, 244.225717)"><g><path d="M 3.15625 -2.71875 C 3.15625 -2.375 3.101562 -1.910156 3 -1.328125 C 2.90625 -0.742188 2.796875 -0.210938 2.671875 0.265625 C 2.585938 0.265625 2.5 0.253906 2.40625 0.234375 C 2.320312 0.222656 2.234375 0.207031 2.140625 0.1875 C 2.148438 0.164062 2.15625 0.140625 2.15625 0.109375 C 2.164062 0.078125 2.179688 0.0351562 2.203125 -0.015625 C 2.210938 -0.0976562 2.222656 -0.15625 2.234375 -0.1875 C 2.242188 -0.226562 2.253906 -0.265625 2.265625 -0.296875 C 2.148438 -0.222656 2.019531 -0.164062 1.875 -0.125 C 1.738281 -0.0820312 1.585938 -0.0625 1.421875 -0.0625 C 1.066406 -0.0625 0.773438 -0.15625 0.546875 -0.34375 C 0.328125 -0.539062 0.21875 -0.800781 0.21875 -1.125 C 0.21875 -1.46875 0.363281 -1.726562 0.65625 -1.90625 C 0.945312 -2.09375 1.378906 -2.1875 1.953125 -2.1875 C 2.035156 -2.1875 2.113281 -2.179688 2.1875 -2.171875 C 2.269531 -2.171875 2.378906 -2.164062 2.515625 -2.15625 C 2.515625 -2.21875 2.515625 -2.28125 2.515625 -2.34375 C 2.515625 -2.40625 2.515625 -2.503906 2.515625 -2.640625 C 2.515625 -3.066406 2.460938 -3.375 2.359375 -3.5625 C 2.265625 -3.757812 2.097656 -3.859375 1.859375 -3.859375 C 1.609375 -3.859375 1.398438 -3.75 1.234375 -3.53125 C 1.066406 -3.3125 0.976562 -3.039062 0.96875 -2.71875 C 0.820312 -2.738281 0.703125 -2.769531 0.609375 -2.8125 C 0.523438 -2.863281 0.457031 -2.9375 0.40625 -3.03125 C 0.46875 -3.375 0.644531 -3.664062 0.9375 -3.90625 C 1.226562 -4.15625 1.5625 -4.28125 1.9375 -4.28125 C 2.332031 -4.28125 2.632812 -4.148438 2.84375 -3.890625 C 3.050781 -3.628906 3.15625 -3.238281 3.15625 -2.71875 Z M 0.84375 -1.109375 C 0.84375 -0.910156 0.90625 -0.753906 1.03125 -0.640625 C 1.164062 -0.523438 1.335938 -0.46875 1.546875 -0.46875 C 1.691406 -0.46875 1.832031 -0.488281 1.96875 -0.53125 C 2.101562 -0.570312 2.226562 -0.640625 2.34375 -0.734375 C 2.382812 -0.953125 2.414062 -1.144531 2.4375 -1.3125 C 2.46875 -1.488281 2.488281 -1.660156 2.5 -1.828125 C 1.945312 -1.859375 1.53125 -1.8125 1.25 -1.6875 C 0.976562 -1.570312 0.84375 -1.378906 0.84375 -1.109375 Z M 0.84375 -1.109375 "/></g></g></g><g fill="#000000" fill-opacity="1"><g transform="translate(184.132837, 244.225717)"><g><path d="M 1 -1.328125 C 1 -1.078125 1.003906 -0.796875 1.015625 -0.484375 C 1.023438 -0.171875 1.039062 0.0546875 1.0625 0.203125 C 0.988281 0.222656 0.90625 0.238281 0.8125 0.25 C 0.71875 0.269531 0.625 0.28125 0.53125 0.28125 C 0.5 -0.269531 0.46875 -0.988281 0.4375 -1.875 C 0.414062 -2.769531 0.40625 -3.523438 0.40625 -4.140625 C 0.457031 -4.171875 0.519531 -4.191406 0.59375 -4.203125 C 0.664062 -4.222656 0.742188 -4.234375 0.828125 -4.234375 C 0.878906 -4.234375 0.925781 -4.226562 0.96875 -4.21875 C 1.019531 -4.21875 1.078125 -4.210938 1.140625 -4.203125 C 1.128906 -4.109375 1.113281 -3.953125 1.09375 -3.734375 C 1.082031 -3.523438 1.070312 -3.390625 1.0625 -3.328125 C 1.238281 -3.617188 1.425781 -3.835938 1.625 -3.984375 C 1.820312 -4.128906 2.03125 -4.203125 2.25 -4.203125 C 2.582031 -4.203125 2.820312 -4.078125 2.96875 -3.828125 C 3.125 -3.585938 3.203125 -3.210938 3.203125 -2.703125 C 3.203125 -2.285156 3.164062 -1.816406 3.09375 -1.296875 C 3.03125 -0.785156 2.960938 -0.382812 2.890625 -0.09375 C 2.804688 -0.09375 2.710938 -0.101562 2.609375 -0.125 C 2.503906 -0.144531 2.410156 -0.164062 2.328125 -0.1875 C 2.421875 -0.707031 2.488281 -1.171875 2.53125 -1.578125 C 2.570312 -1.984375 2.59375 -2.363281 2.59375 -2.71875 C 2.59375 -3.050781 2.550781 -3.289062 2.46875 -3.4375 C 2.382812 -3.59375 2.25 -3.671875 2.0625 -3.671875 C 1.875 -3.671875 1.6875 -3.578125 1.5 -3.390625 C 1.320312 -3.203125 1.164062 -2.945312 1.03125 -2.625 C 1.019531 -2.238281 1.007812 -1.957031 1 -1.78125 C 1 -1.613281 1 -1.460938 1 -1.328125 Z M 1 -1.328125 "/></g></g></g><g fill="#000000" fill-opacity="1"><g transform="translate(187.810587, 244.225717)"><g><path d="M 3.078125 -1.546875 C 3.078125 -0.472656 2.941406 0.34375 2.671875 0.90625 C 2.410156 1.476562 2.039062 1.765625 1.5625 1.765625 C 1.238281 1.765625 0.972656 1.648438 0.765625 1.421875 C 0.566406 1.203125 0.429688 0.890625 0.359375 0.484375 C 0.453125 0.429688 0.546875 0.378906 0.640625 0.328125 C 0.734375 0.285156 0.828125 0.253906 0.921875 0.234375 C 0.984375 0.628906 1.066406 0.910156 1.171875 1.078125 C 1.273438 1.242188 1.421875 1.328125 1.609375 1.328125 C 1.847656 1.328125 2.039062 1.144531 2.1875 0.78125 C 2.332031 0.425781 2.421875 -0.0859375 2.453125 -0.765625 C 2.328125 -0.554688 2.179688 -0.398438 2.015625 -0.296875 C 1.859375 -0.191406 1.6875 -0.140625 1.5 -0.140625 C 1.144531 -0.140625 0.859375 -0.304688 0.640625 -0.640625 C 0.421875 -0.984375 0.3125 -1.425781 0.3125 -1.96875 C 0.3125 -2.332031 0.335938 -2.671875 0.390625 -2.984375 C 0.441406 -3.304688 0.546875 -3.722656 0.703125 -4.234375 C 0.796875 -4.234375 0.894531 -4.222656 1 -4.203125 C 1.101562 -4.179688 1.195312 -4.160156 1.28125 -4.140625 C 1.144531 -3.640625 1.050781 -3.238281 1 -2.9375 C 0.957031 -2.644531 0.9375 -2.328125 0.9375 -1.984375 C 0.9375 -1.585938 1 -1.265625 1.125 -1.015625 C 1.257812 -0.773438 1.441406 -0.65625 1.671875 -0.65625 C 1.828125 -0.65625 1.972656 -0.726562 2.109375 -0.875 C 2.242188 -1.019531 2.363281 -1.242188 2.46875 -1.546875 C 2.457031 -2.023438 2.425781 -2.457031 2.375 -2.84375 C 2.332031 -3.238281 2.253906 -3.613281 2.140625 -3.96875 C 2.222656 -4.03125 2.328125 -4.070312 2.453125 -4.09375 C 2.578125 -4.125 2.695312 -4.128906 2.8125 -4.109375 C 2.894531 -3.773438 2.957031 -3.367188 3 -2.890625 C 3.050781 -2.421875 3.078125 -1.972656 3.078125 -1.546875 Z M 3.078125 -1.546875 "/></g></g></g><g fill="#000000" fill-opacity="1"><g transform="translate(125.185378, 233.107085)"><g><path d="M 6.84375 -21.359375 C 6.84375 -14.816406 6.820312 -10.191406 6.78125 -7.484375 C 6.738281 -4.773438 6.65625 -1.988281 6.53125 0.875 C 6.238281 0.96875 5.828125 1.039062 5.296875 1.09375 C 4.773438 1.15625 4.222656 1.203125 3.640625 1.234375 C 3.703125 -4.585938 3.671875 -10.039062 3.546875 -15.125 C 3.429688 -20.21875 3.210938 -24.929688 2.890625 -29.265625 C 3.242188 -29.472656 3.617188 -29.617188 4.015625 -29.703125 C 4.410156 -29.785156 4.8125 -29.828125 5.21875 -29.828125 C 5.457031 -29.828125 5.6875 -29.820312 5.90625 -29.8125 C 6.125 -29.800781 6.363281 -29.765625 6.625 -29.703125 C 6.707031 -28.472656 6.765625 -27.210938 6.796875 -25.921875 C 6.828125 -24.640625 6.84375 -23.117188 6.84375 -21.359375 Z M 6.84375 -21.359375 "/></g></g></g><g fill="#000000" fill-opacity="1"><g transform="translate(135.494495, 233.107085)"><g><path d="M 23.421875 -11.359375 C 23.421875 -7.972656 22.097656 -5.085938 19.453125 -2.703125 C 16.804688 -0.316406 13.582031 0.875 9.78125 0.875 C 8.726562 0.875 7.660156 0.726562 6.578125 0.4375 C 5.492188 0.144531 4.570312 -0.234375 3.8125 -0.703125 C 3.582031 -5.585938 3.421875 -9.675781 3.328125 -12.96875 C 3.242188 -16.257812 3.203125 -19.804688 3.203125 -23.609375 C 3.203125 -23.953125 3.203125 -24.320312 3.203125 -24.71875 C 3.203125 -25.113281 3.203125 -25.738281 3.203125 -26.59375 C 3.171875 -27.644531 3.15625 -28.460938 3.15625 -29.046875 C 3.15625 -29.628906 3.15625 -30.195312 3.15625 -30.75 C 4.351562 -31.3125 5.625 -31.738281 6.96875 -32.03125 C 8.320312 -32.320312 9.6875 -32.46875 11.0625 -32.46875 C 14.269531 -32.46875 16.765625 -31.835938 18.546875 -30.578125 C 20.335938 -29.316406 21.234375 -27.5625 21.234375 -25.3125 C 21.234375 -23.757812 20.804688 -22.398438 19.953125 -21.234375 C 19.109375 -20.066406 17.851562 -19.085938 16.1875 -18.296875 C 18.5625 -17.941406 20.359375 -17.171875 21.578125 -15.984375 C 22.804688 -14.804688 23.421875 -13.265625 23.421875 -11.359375 Z M 17.71875 -24.921875 C 17.71875 -26.554688 17.144531 -27.816406 16 -28.703125 C 14.863281 -29.597656 13.226562 -30.046875 11.09375 -30.046875 C 10.425781 -30.046875 9.738281 -29.992188 9.03125 -29.890625 C 8.332031 -29.796875 7.632812 -29.660156 6.9375 -29.484375 C 6.789062 -27.816406 6.6875 -26.082031 6.625 -24.28125 C 6.5625 -22.488281 6.53125 -20.332031 6.53125 -17.8125 C 10.394531 -18.164062 13.222656 -18.90625 15.015625 -20.03125 C 16.816406 -21.15625 17.71875 -22.785156 17.71875 -24.921875 Z M 6.796875 -2.328125 C 7.328125 -2.085938 7.882812 -1.898438 8.46875 -1.765625 C 9.050781 -1.640625 9.632812 -1.578125 10.21875 -1.578125 C 12.851562 -1.578125 15.117188 -2.46875 17.015625 -4.25 C 18.921875 -6.039062 19.875 -8.132812 19.875 -10.53125 C 19.875 -12.457031 19.316406 -13.894531 18.203125 -14.84375 C 17.097656 -15.800781 15.40625 -16.28125 13.125 -16.28125 C 12.125 -16.28125 11.007812 -16.171875 9.78125 -15.953125 C 8.550781 -15.734375 7.46875 -15.445312 6.53125 -15.09375 C 6.53125 -14.476562 6.53125 -13.851562 6.53125 -13.21875 C 6.53125 -12.59375 6.53125 -11.957031 6.53125 -11.3125 C 6.53125 -9.5625 6.550781 -7.976562 6.59375 -6.5625 C 6.644531 -5.144531 6.710938 -3.734375 6.796875 -2.328125 Z M 6.796875 -2.328125 "/></g></g></g><g fill="#000000" fill-opacity="1"><g transform="translate(160.675067, 233.107085)"><g><path d="M 18.609375 -9.734375 C 19.160156 -9.765625 19.660156 -9.734375 20.109375 -9.640625 C 20.566406 -9.554688 21.015625 -9.398438 21.453125 -9.171875 C 21.273438 -5.660156 20.378906 -3 18.765625 -1.1875 C 17.160156 0.625 14.910156 1.53125 12.015625 1.53125 C 8.828125 1.53125 6.363281 0.332031 4.625 -2.0625 C 2.882812 -4.457031 2.015625 -7.878906 2.015625 -12.328125 C 2.015625 -17.710938 3.132812 -22.070312 5.375 -25.40625 C 7.613281 -28.738281 10.546875 -30.40625 14.171875 -30.40625 C 16.710938 -30.40625 18.582031 -29.578125 19.78125 -27.921875 C 20.988281 -26.273438 21.546875 -23.769531 21.453125 -20.40625 C 21.046875 -20.132812 20.554688 -19.929688 19.984375 -19.796875 C 19.410156 -19.671875 18.757812 -19.625 18.03125 -19.65625 C 18.238281 -22.550781 17.988281 -24.640625 17.28125 -25.921875 C 16.582031 -27.210938 15.34375 -27.859375 13.5625 -27.859375 C 11.363281 -27.859375 9.503906 -26.484375 7.984375 -23.734375 C 6.460938 -20.984375 5.703125 -17.429688 5.703125 -13.078125 C 5.703125 -9.179688 6.285156 -6.195312 7.453125 -4.125 C 8.628906 -2.050781 10.3125 -1.015625 12.5 -1.015625 C 14.488281 -1.015625 16.023438 -1.796875 17.109375 -3.359375 C 18.191406 -4.921875 18.691406 -7.046875 18.609375 -9.734375 Z M 18.609375 -9.734375 "/></g></g></g></svg>