<svg xmlns="http://www.w3.org/2000/svg" xmlns:xlink="http://www.w3.org/1999/xlink" width="414" zoomAndPan="magnify" viewBox="0 0 310.5 234.749994" height="313" preserveAspectRatio="xMidYMid meet" version="1.0"><defs><clipPath id="7c72bfb176"><path d="M 39 75 L 120 75 L 120 159 L 39 159 Z M 39 75 " clip-rule="nonzero"/></clipPath><clipPath id="abfa12cea1"><path d="M 102.539062 0.0664062 L 235.941406 117.101562 L 133.226562 234.179688 L -0.175781 117.144531 Z M 102.539062 0.0664062 " clip-rule="nonzero"/></clipPath><clipPath id="9689498179"><path d="M 133.367188 233.949219 L -0.03125 116.910156 L 102.683594 -0.167969 L 236.085938 116.871094 Z M 133.367188 233.949219 " clip-rule="nonzero"/></clipPath><clipPath id="c410ade9c6"><path d="M 70 19 L 169 19 L 169 118 L 70 118 Z M 70 19 " clip-rule="nonzero"/></clipPath><clipPath id="d2d06829b2"><path d="M 102.539062 0.0664062 L 235.941406 117.101562 L 133.226562 234.179688 L -0.175781 117.144531 Z M 102.539062 0.0664062 " clip-rule="nonzero"/></clipPath><clipPath id="b2140a6237"><path d="M 133.367188 233.949219 L -0.03125 116.910156 L 102.683594 -0.167969 L 236.085938 116.871094 Z M 133.367188 233.949219 " clip-rule="nonzero"/></clipPath><clipPath id="50c5a1cf35"><path d="M 121 60 L 220 60 L 220 158 L 121 158 Z M 121 60 " clip-rule="nonzero"/></clipPath><clipPath id="61de06cc9e"><path d="M 102.539062 0.0664062 L 235.941406 117.101562 L 133.226562 234.179688 L -0.175781 117.144531 Z M 102.539062 0.0664062 " clip-rule="nonzero"/></clipPath><clipPath id="573fae66d4"><path d="M 133.367188 233.949219 L -0.03125 116.910156 L 102.683594 -0.167969 L 236.085938 116.871094 Z M 133.367188 233.949219 " clip-rule="nonzero"/></clipPath><clipPath id="dce652a19f"><path d="M 88 121 L 169 121 L 169 198 L 88 198 Z M 88 121 " clip-rule="nonzero"/></clipPath><clipPath id="91ecb669ba"><path d="M 102.539062 0.0664062 L 235.941406 117.101562 L 133.226562 234.179688 L -0.175781 117.144531 Z M 102.539062 0.0664062 " clip-rule="nonzero"/></clipPath><clipPath id="c1115a2de2"><path d="M 133.367188 233.949219 L -0.03125 116.910156 L 102.683594 -0.167969 L 236.085938 116.871094 Z M 133.367188 233.949219 " clip-rule="nonzero"/></clipPath><clipPath id="a81bb7c0e8"><path d="M 163 53 L 261 53 L 261 170 L 163 170 Z M 163 53 " clip-rule="nonzero"/></clipPath><clipPath id="11dbc5282d"><path d="M 155.09375 0.0664062 L 309.574219 50.449219 L 253.847656 221.304688 L 99.367188 170.917969 Z M 155.09375 0.0664062 " clip-rule="nonzero"/></clipPath><clipPath id="037889439d"><path d="M 155.09375 0.0664062 L 309.574219 50.449219 L 253.847656 221.304688 L 99.367188 170.917969 Z M 155.09375 0.0664062 " clip-rule="nonzero"/></clipPath><clipPath id="a5ededb607"><path d="M 196 62 L 256 62 L 256 156 L 196 156 Z M 196 62 " clip-rule="nonzero"/></clipPath><clipPath id="fcf9a5b405"><path d="M 155.09375 0.0664062 L 309.574219 50.449219 L 253.847656 221.304688 L 99.367188 170.917969 Z M 155.09375 0.0664062 " clip-rule="nonzero"/></clipPath><clipPath id="8db1a54e07"><path d="M 155.09375 0.0664062 L 309.574219 50.449219 L 253.847656 221.304688 L 99.367188 170.917969 Z M 155.09375 0.0664062 " clip-rule="nonzero"/></clipPath><clipPath id="e6777eda73"><path d="M 165 152 L 208 152 L 208 199 L 165 199 Z M 165 152 " clip-rule="nonzero"/></clipPath><clipPath id="28d196e017"><path d="M 155.09375 0.0664062 L 309.574219 50.449219 L 253.847656 221.304688 L 99.367188 170.917969 Z M 155.09375 0.0664062 " clip-rule="nonzero"/></clipPath><clipPath id="fe0a730742"><path d="M 155.09375 0.0664062 L 309.574219 50.449219 L 253.847656 221.304688 L 99.367188 170.917969 Z M 155.09375 0.0664062 " clip-rule="nonzero"/></clipPath><clipPath id="2bcef62b8f"><path d="M 131 25 L 296 25 L 296 195 L 131 195 Z M 131 25 " clip-rule="nonzero"/></clipPath><clipPath id="f98eeeb7a2"><path d="M 155.09375 0.0664062 L 309.574219 50.449219 L 253.847656 221.304688 L 99.367188 170.917969 Z M 155.09375 0.0664062 " clip-rule="nonzero"/></clipPath><clipPath id="9d1acf29dc"><path d="M 155.09375 0.0664062 L 309.574219 50.449219 L 253.847656 221.304688 L 99.367188 170.917969 Z M 155.09375 0.0664062 " clip-rule="nonzero"/></clipPath><clipPath id="4df90f5de4"><path d="M 155.230469 0.109375 L 309.71875 50.5 L 255.320312 217.28125 L 100.832031 166.894531 Z M 155.230469 0.109375 " clip-rule="nonzero"/></clipPath><clipPath id="65ef30220b"><path d="M 171 65 L 197 65 L 197 117 L 171 117 Z M 171 65 " clip-rule="nonzero"/></clipPath><clipPath id="4c03391d41"><path d="M 155.09375 0.0664062 L 309.574219 50.449219 L 253.847656 221.304688 L 99.367188 170.917969 Z M 155.09375 0.0664062 " clip-rule="nonzero"/></clipPath><clipPath id="b3567690ba"><path d="M 155.09375 0.0664062 L 309.574219 50.449219 L 253.847656 221.304688 L 99.367188 170.917969 Z M 155.09375 0.0664062 " clip-rule="nonzero"/></clipPath></defs><g clip-path="url(#7c72bfb176)"><g clip-path="url(#abfa12cea1)"><g clip-path="url(#9689498179)"><path fill="#c1666b" d="M 88.835938 93.15625 L 68.121094 75.617188 L 40.429688 112.410156 C 39.273438 113.953125 39.339844 116.089844 40.605469 117.550781 L 52.570312 131.382812 C 52.570312 131.382812 31.859375 144.851562 47.9375 155.40625 C 64.035156 165.957031 73.863281 146.132812 73.863281 146.132812 L 87.957031 158.5 L 96.476562 148.773438 C 94.578125 147.382812 90.417969 143.890625 89.433594 139.277344 C 88.863281 136.636719 89.425781 134.0625 91.085938 131.609375 C 92.714844 129.214844 94.894531 127.742188 97.558594 127.234375 C 102.570312 126.304688 107.84375 129.101562 109.757812 130.257812 L 118.523438 120.265625 C 118.699219 120.070312 118.894531 119.886719 119.117188 119.742188 L 106.054688 108.28125 L 106.847656 107.539062 C 107.007812 107.394531 122.683594 92.648438 113.878906 82.046875 C 112.175781 79.988281 110.1875 79.019531 107.820312 79.066406 C 99.421875 79.261719 89.5625 92.191406 89.46875 92.332031 Z M 88.835938 93.15625 " fill-opacity="1" fill-rule="nonzero"/></g></g></g><g clip-path="url(#c410ade9c6)"><g clip-path="url(#d2d06829b2)"><g clip-path="url(#b2140a6237)"><path fill="#48a9a6" d="M 88.632812 25.921875 C 94.300781 27.324219 99.117188 33.042969 99.632812 37.21875 L 99.882812 39.214844 L 119.359375 19.664062 L 168.617188 58.308594 C 167.359375 58.523438 166.207031 59.167969 165.355469 60.136719 L 153.8125 73.292969 C 151.636719 71.171875 145.144531 66.054688 136.292969 70.082031 C 130.9375 72.515625 127.851562 76.089844 127.617188 80.152344 C 127.394531 83.710938 129.445312 87.070312 133.222656 89.378906 L 139.476562 93.195312 L 134.65625 98.789062 L 121.066406 114.589844 C 120.316406 115.472656 119.855469 116.535156 119.730469 117.65625 L 108.964844 108.207031 C 111.9375 105.144531 122.238281 93.460938 117.140625 83.417969 C 116.6875 82.523438 116.113281 81.644531 115.394531 80.78125 C 113.90625 78.992188 112.183594 77.84375 110.234375 77.359375 C 109.449219 77.167969 108.628906 77.074219 107.777344 77.09375 C 99.667969 77.28125 90.960938 87.332031 88.554688 90.324219 L 70.378906 74.941406 L 84.816406 55.0625 L 85.597656 53.996094 L 84.480469 53.511719 C 84.382812 53.476562 75.3125 49.480469 73.320312 42.492188 C 72.367188 39.164062 73.175781 35.640625 75.714844 31.988281 C 80.25 25.46875 85.25 25.082031 88.640625 25.917969 Z M 88.632812 25.921875 " fill-opacity="1" fill-rule="nonzero"/></g></g></g><g clip-path="url(#50c5a1cf35)"><g clip-path="url(#61de06cc9e)"><g clip-path="url(#573fae66d4)"><path fill="#e4dfda" d="M 121.855469 119.253906 C 122.183594 119.339844 122.503906 119.480469 122.800781 119.664062 C 122.910156 119.730469 123.019531 119.816406 123.121094 119.90625 C 138.59375 132.910156 161.960938 150.609375 168.757812 155.722656 C 168.824219 155.765625 168.882812 155.820312 168.941406 155.871094 C 169.320312 156.203125 169.609375 156.613281 169.804688 157.074219 C 170.644531 156.9375 171.441406 156.523438 172.035156 155.828125 L 189.761719 135.164062 L 190.503906 136.011719 C 190.636719 136.164062 203.78125 150.863281 212.355469 143.398438 C 214.210938 141.789062 215.136719 139.882812 215.203125 137.578125 C 215.386719 130.609375 207.386719 122.757812 207.3125 122.675781 L 206.644531 122.027344 L 218.28125 108.761719 C 219.628906 107.226562 219.472656 104.886719 217.9375 103.539062 L 207.140625 94.066406 C 206.300781 93.328125 205.179688 93.011719 204.070312 93.203125 C 202.976562 93.394531 202.039062 94.046875 201.496094 95.019531 C 196.613281 103.667969 189.636719 106.125 181.84375 101.9375 C 180.8125 101.386719 179.917969 100.769531 179.15625 100.101562 C 177.453125 98.605469 176.445312 96.835938 176.160156 94.808594 C 175.371094 89.242188 180.253906 83.144531 184.484375 79.007812 C 185.191406 78.304688 185.589844 77.375 185.601562 76.378906 C 185.613281 75.398438 185.230469 74.464844 184.539062 73.765625 L 172.246094 61.269531 C 172.105469 61.117188 171.949219 60.996094 171.785156 60.878906 C 171.515625 60.671875 171.21875 60.515625 170.90625 60.394531 C 170.558594 60.273438 170.199219 60.191406 169.820312 60.175781 C 169.714844 60.160156 169.613281 60.160156 169.5 60.164062 C 168.457031 60.191406 167.511719 60.640625 166.828125 61.425781 L 153.792969 76.28125 L 153.058594 75.363281 C 152.800781 75.046875 146.605469 67.550781 137.097656 71.863281 C 132.511719 73.949219 129.761719 77.011719 129.5625 80.273438 C 129.390625 83.078125 131.101562 85.789062 134.238281 87.707031 L 142.46875 92.722656 L 128.746094 108.675781 L 122.546875 115.875 C 122.042969 116.46875 121.734375 117.1875 121.664062 117.953125 C 121.648438 118.136719 121.640625 118.320312 121.660156 118.511719 C 121.652344 118.53125 121.652344 118.558594 121.65625 118.585938 C 121.675781 118.816406 121.714844 119.027344 121.773438 119.238281 L 121.851562 119.253906 Z M 121.855469 119.253906 " fill-opacity="1" fill-rule="nonzero"/></g></g></g><g clip-path="url(#dce652a19f)"><g clip-path="url(#91ecb669ba)"><g clip-path="url(#c1115a2de2)"><path fill="#4281a4" d="M 120.515625 121.210938 C 120.320312 121.273438 120.144531 121.398438 120.003906 121.558594 L 110.101562 132.84375 L 109.382812 132.355469 C 109.324219 132.304688 103.242188 128.167969 97.914062 129.167969 C 95.785156 129.570312 94.03125 130.765625 92.714844 132.714844 C 91.359375 134.703125 90.90625 136.773438 91.347656 138.859375 C 92.433594 143.949219 98.398438 147.71875 98.460938 147.753906 L 99.441406 148.363281 L 89.4375 159.800781 L 89.015625 160.28125 C 88.773438 160.554688 88.660156 160.910156 88.683594 161.269531 C 88.703125 161.632812 88.855469 161.90625 89.144531 162.175781 C 96.492188 168.476562 121.394531 189.605469 133.199219 196.949219 C 133.761719 197.292969 134.480469 197.183594 134.914062 196.6875 L 167.773438 159.234375 C 167.859375 159.140625 167.921875 159.035156 167.96875 158.9375 C 168.085938 158.714844 168.128906 158.476562 168.101562 158.21875 C 168.097656 158.125 168.074219 158.027344 168.035156 157.9375 C 167.957031 157.6875 167.796875 157.46875 167.582031 157.292969 C 160.777344 152.171875 137.394531 134.464844 121.878906 121.429688 L 121.863281 121.417969 C 121.78125 121.316406 121.695312 121.234375 121.636719 121.140625 C 121.628906 121.117188 121.617188 121.105469 121.605469 121.082031 L 121.511719 121.210938 C 121.261719 121.109375 120.980469 121.085938 120.71875 121.144531 L 120.511719 121.210938 Z M 120.515625 121.210938 " fill-opacity="1" fill-rule="nonzero"/></g></g></g><g clip-path="url(#a81bb7c0e8)"><g clip-path="url(#11dbc5282d)"><g clip-path="url(#037889439d)"><path fill="#f6b737" d="M 252.835938 117.09375 C 246.855469 127.085938 238.335938 134.355469 228.390625 140.203125 C 223.324219 143.179688 218.125 146.070312 213.847656 150.164062 C 211.613281 152.296875 209.695312 154.742188 208.128906 157.402344 C 206.558594 160.0625 205.777344 162.980469 204.414062 165.714844 C 202.089844 170.375 197.179688 169.65625 192.992188 168.265625 C 187.0625 166.289062 181.308594 163.75 175.84375 160.710938 C 175.277344 160.742188 174.640625 160.363281 174.75 159.71875 C 175.242188 156.804688 175.746094 153.886719 176.085938 150.949219 C 176.792969 144.890625 176.703125 138.789062 174.601562 133 C 172.71875 127.816406 169.792969 123.097656 167.539062 118.082031 C 163.195312 108.421875 162.4375 97.492188 164.875 87.21875 C 167.085938 77.886719 172.011719 68.988281 179.359375 62.730469 C 187.183594 56.066406 197.195312 53.382812 207.347656 53.609375 C 218.546875 53.859375 230.523438 56.765625 240.585938 61.65625 C 250.257812 66.355469 258.8125 74.519531 260.570312 85.546875 C 262.296875 96.367188 258.339844 107.894531 252.835938 117.09375 " fill-opacity="1" fill-rule="nonzero"/></g></g></g><g clip-path="url(#a5ededb607)"><g clip-path="url(#fcf9a5b405)"><g clip-path="url(#8db1a54e07)"><path fill="#ffc736" d="M 212.542969 140.613281 C 209.234375 138.0625 210.328125 132.539062 205.542969 135.296875 C 205.027344 135.59375 196.371094 151.265625 196.320312 152.089844 C 195.621094 164.0625 217.542969 144.460938 212.542969 140.613281 Z M 230.441406 70.433594 C 233.007812 69.902344 239.871094 73.203125 242.429688 71.246094 C 246.5 68.128906 240.824219 64.558594 237.867188 63.199219 C 229.160156 59.1875 226.5625 71.234375 230.441406 70.433594 Z M 254.097656 97.179688 C 249.648438 110.898438 239.65625 126.191406 226.941406 133.625 C 223.269531 135.769531 216.128906 139.167969 214.230469 133.285156 C 213.140625 129.90625 220.085938 117.636719 221.003906 114.449219 C 223.429688 106.058594 224.148438 97.554688 225.875 89.042969 C 227.308594 81.949219 229.023438 80.058594 236.28125 79.394531 C 249.878906 78.140625 258.957031 82.203125 254.097656 97.179688 " fill-opacity="1" fill-rule="nonzero"/></g></g></g><g clip-path="url(#e6777eda73)"><g clip-path="url(#28d196e017)"><g clip-path="url(#fe0a730742)"><path fill="#9f785a" d="M 204.011719 182.199219 C 203.0625 184.714844 200.753906 186.746094 198.125 186.417969 C 198.191406 189.1875 195.933594 191.390625 193.296875 192.210938 C 192.589844 194.574219 191.289062 196.515625 188.71875 197.445312 C 185.765625 198.515625 182.402344 198.011719 179.484375 197.085938 C 175.335938 195.765625 167.085938 190.898438 169.242188 185.597656 C 167.941406 184.78125 166.714844 183.804688 165.992188 182.476562 C 165.246094 181.101562 165.195312 179.476562 166.269531 178.253906 C 166.980469 177.449219 167.910156 177.050781 168.898438 176.847656 C 166.8125 174.929688 165.453125 172.324219 166.003906 169.351562 C 166.480469 166.796875 168.554688 164.84375 171.042969 164.589844 C 169.898438 161.765625 169.035156 158.6875 170.367188 155.773438 C 171.234375 153.867188 173.078125 152.585938 175.0625 152.515625 C 175.21875 152.375 175.433594 152.308594 175.664062 152.417969 C 175.78125 152.472656 175.902344 152.527344 176.019531 152.582031 C 176.378906 152.640625 176.738281 152.738281 177.09375 152.882812 C 177.3125 152.972656 177.457031 153.117188 177.546875 153.285156 C 181.1875 154.9375 184.882812 156.445312 188.695312 157.652344 C 193.046875 159.03125 197.453125 159.789062 201.902344 160.71875 C 204.855469 161.339844 207.832031 163.125 207.652344 166.523438 C 207.492188 169.507812 205.789062 172.101562 203.488281 173.878906 C 204.921875 176.394531 205.042969 179.464844 204.011719 182.199219 " fill-opacity="1" fill-rule="nonzero"/></g></g></g><g clip-path="url(#2bcef62b8f)"><g clip-path="url(#f98eeeb7a2)"><g clip-path="url(#9d1acf29dc)"><g clip-path="url(#4df90f5de4)"><path fill="#2e2e30" d="M 191.757812 192.390625 C 188.144531 193.453125 184.824219 192.566406 181.34375 191.421875 C 177.484375 190.15625 174.117188 188.46875 170.71875 186.273438 C 170.21875 185.949219 169.574219 186.636719 170.015625 187.082031 C 173.046875 190.148438 177.570312 191.644531 181.5625 192.984375 C 184.886719 194.101562 188.859375 195.335938 192.183594 193.585938 C 192.804688 193.257812 192.476562 192.175781 191.757812 192.390625 Z M 196.59375 185.261719 C 194.480469 184.875 192.25 185 190.105469 184.710938 C 187.785156 184.402344 185.488281 183.90625 183.238281 183.25 C 178.878906 181.96875 174.8125 179.984375 170.949219 177.613281 C 170.269531 177.199219 169.609375 178.191406 170.265625 178.648438 C 174.179688 181.375 178.554688 183.398438 183.121094 184.785156 C 187.203125 186.03125 192.441406 187.417969 196.71875 186.710938 C 197.613281 186.5625 197.34375 185.398438 196.59375 185.261719 Z M 186.960938 171.980469 C 191.214844 173.140625 196.394531 174.617188 200.820312 174.105469 C 201.425781 174.035156 201.460938 173.058594 200.882812 172.917969 C 198.804688 172.40625 196.585938 172.410156 194.464844 172.085938 C 191.964844 171.707031 189.484375 171.195312 187.046875 170.519531 C 182.46875 169.25 178.328125 167.21875 173.941406 165.46875 C 173.320312 165.21875 172.894531 166.15625 173.4375 166.511719 C 177.441406 169.125 182.382812 170.734375 186.960938 171.980469 Z M 231.484375 108.273438 C 231.527344 107.882812 231.117188 107.460938 230.382812 107.148438 C 230.277344 107.101562 230.171875 107.0625 230.0625 107.027344 C 228.355469 106.46875 226.261719 107.03125 224.710938 107.8125 C 225.441406 108.371094 226.25 108.796875 227.070312 109.066406 C 228.023438 109.378906 228.953125 109.460938 229.828125 109.308594 C 230.910156 109.121094 231.4375 108.65625 231.484375 108.273438 Z M 220.632812 106.90625 L 220.582031 106.863281 L 220.550781 106.8125 C 220.1875 106.226562 219.878906 105.601562 219.621094 104.957031 C 219.179688 103.847656 218.882812 102.636719 218.738281 101.347656 C 217.179688 101.804688 215.578125 101.792969 214.078125 101.304688 C 211.726562 100.535156 209.859375 98.652344 209.003906 96.21875 C 206.546875 97.84375 204.039062 98.359375 201.898438 97.660156 C 201.121094 97.40625 200.390625 96.992188 199.722656 96.421875 C 198.953125 97.835938 198.207031 98.941406 197.394531 99.875 C 197.230469 100.0625 196.992188 100.28125 196.738281 100.507812 C 196.394531 100.8125 195.820312 101.324219 195.773438 101.550781 C 195.707031 101.875 196.082031 102.777344 196.355469 103.433594 C 196.597656 104.007812 196.820312 104.550781 196.894531 104.953125 C 197.105469 106.105469 197.199219 107.382812 197.1875 108.855469 C 197.136719 114.371094 195.632812 119.882812 194.222656 124.617188 C 192.691406 129.78125 190.859375 134.949219 189.085938 139.949219 C 188.671875 141.113281 188.261719 142.28125 187.851562 143.445312 C 186.828125 146.359375 185.746094 149.382812 184.632812 152.433594 C 184.570312 152.609375 184.472656 152.929688 184.351562 153.335938 C 184.210938 153.792969 184.070312 154.25 183.929688 154.695312 C 186.296875 155.605469 188.675781 156.492188 191.125 157.226562 C 194.125 158.128906 197.152344 158.8125 200.199219 159.453125 C 200.386719 158.035156 200.921875 156.246094 201.5 154.449219 C 201.664062 153.941406 201.804688 153.5 201.875 153.234375 C 203.40625 147.367188 205.433594 141.144531 208.253906 133.65625 C 208.78125 132.261719 209.296875 130.855469 209.816406 129.449219 C 211.507812 124.867188 213.253906 120.128906 215.296875 115.648438 C 216.050781 114.003906 216.734375 112.707031 217.453125 111.566406 C 217.683594 111.207031 218.089844 110.703125 218.558594 110.121094 C 219.238281 109.28125 220.824219 107.316406 220.632812 106.90625 Z M 199.402344 91.660156 C 199.476562 91.515625 199.550781 91.363281 199.628906 91.203125 C 200.621094 89.207031 202.117188 86.1875 201.738281 84.40625 C 201.617188 83.835938 201.316406 83.421875 200.933594 83.296875 C 200.648438 83.207031 200.320312 83.265625 199.957031 83.476562 C 199.160156 83.929688 199.054688 85.488281 198.988281 86.421875 L 198.976562 86.621094 C 198.832031 88.621094 198.972656 90.277344 199.402344 91.660156 Z M 210.84375 91.632812 C 211.957031 90.664062 213.207031 89.503906 213.765625 88.242188 C 214.007812 87.691406 214.109375 86.691406 213.878906 86.179688 C 213.824219 86.054688 213.757812 85.980469 213.679688 85.953125 C 213.605469 85.929688 213.378906 85.910156 212.90625 86.25 C 211.414062 87.320312 210.945312 89.628906 210.84375 91.632812 Z M 221.257812 97.382812 C 223.726562 95.722656 225.078125 94.191406 225.285156 92.828125 C 225.410156 92.011719 224.9375 91.105469 224.277344 90.890625 C 223.738281 90.714844 223.3125 91.085938 223.042969 91.429688 C 222.152344 92.582031 221.550781 94.582031 221.257812 97.382812 Z M 191.855469 100.546875 C 191.464844 100.25 191.027344 100.023438 190.566406 99.871094 C 189.695312 99.589844 188.835938 99.609375 188.105469 99.929688 C 188.4375 100.246094 188.824219 100.476562 189.253906 100.617188 C 190.152344 100.910156 191.097656 100.777344 191.855469 100.546875 Z M 233.800781 108.636719 C 233.453125 110.386719 231.46875 112.125 228.476562 111.894531 C 227.820312 111.847656 227.140625 111.707031 226.449219 111.480469 C 226.011719 111.339844 225.5625 111.15625 225.121094 110.945312 C 224.847656 110.816406 224.433594 110.488281 223.953125 110.105469 C 223.488281 109.730469 222.847656 109.21875 222.582031 109.132812 C 221.929688 109.109375 220.644531 110.21875 218.199219 115.648438 L 218.046875 115.976562 C 212.253906 128.605469 207.523438 141.757812 203.984375 155.070312 C 203.949219 155.210938 203.886719 155.523438 203.808594 155.917969 C 203.527344 157.34375 203.210938 158.824219 202.828125 160 C 203.363281 160.109375 203.894531 160.222656 204.429688 160.332031 C 205.269531 160.507812 204.996094 161.921875 204.160156 161.8125 C 199.597656 161.207031 195.046875 160.003906 190.65625 158.660156 C 186.289062 157.328125 181.78125 155.828125 177.75 153.671875 C 177.117188 153.332031 177.636719 152.316406 178.289062 152.554688 C 179.332031 152.929688 180.371094 153.328125 181.40625 153.722656 C 182.113281 151.566406 183.230469 148.621094 184.8125 144.660156 C 185.238281 143.597656 185.578125 142.753906 185.703125 142.386719 C 187.417969 137.4375 189.410156 131.59375 191.222656 125.761719 C 192.761719 120.804688 194.214844 115.460938 194.40625 109.957031 C 194.410156 109.78125 194.425781 109.558594 194.4375 109.304688 C 194.519531 107.710938 194.714844 103.972656 193.683594 103.082031 C 193.683594 103.078125 193.660156 103.0625 193.601562 103.042969 C 193.246094 102.925781 192.417969 102.992188 191.617188 103.054688 C 190.457031 103.144531 189.140625 103.25 188.230469 102.953125 C 188.164062 102.929688 188.101562 102.90625 188.042969 102.882812 C 186.761719 102.347656 185.222656 101.246094 185.109375 99.902344 C 185.0625 99.347656 185.25 98.53125 186.417969 97.789062 C 187.765625 96.929688 189.457031 96.761719 191.175781 97.324219 C 191.359375 97.382812 191.539062 97.449219 191.71875 97.523438 C 192.105469 97.6875 192.519531 98.035156 192.921875 98.367188 C 193.300781 98.683594 193.691406 99.011719 193.96875 99.105469 C 193.984375 99.109375 194.003906 99.113281 194.019531 99.117188 C 194.601562 99.238281 195.1875 98.527344 195.757812 97.839844 L 196.09375 97.441406 C 196.632812 96.800781 197.371094 95.925781 197.605469 95.207031 C 197.914062 94.261719 197.796875 93.96875 197.507812 93.265625 C 197.402344 93 197.277344 92.695312 197.152344 92.296875 C 196.433594 90.023438 195.910156 84.695312 197.894531 82.109375 C 198.667969 81.101562 199.726562 80.621094 201.042969 80.679688 C 201.441406 80.699219 201.808594 80.761719 202.132812 80.867188 C 202.910156 81.121094 203.472656 81.617188 203.8125 82.34375 C 204.796875 84.457031 203.574219 87.96875 203.003906 89.378906 C 202.871094 89.710938 202.570312 90.257812 202.222656 90.894531 C 201.710938 91.824219 200.652344 93.761719 200.753906 94.164062 C 200.949219 94.804688 201.625 95.144531 202.15625 95.316406 C 203.199219 95.660156 204.589844 95.644531 205.328125 95.433594 C 206.226562 95.175781 207.359375 94.664062 207.867188 94.101562 C 208.445312 93.460938 208.453125 92.921875 208.472656 92.101562 C 208.480469 91.761719 208.488281 91.375 208.539062 90.941406 C 208.890625 88.09375 209.757812 86.035156 211.109375 84.828125 C 212.085938 83.953125 213.664062 83.265625 214.988281 83.699219 C 215.503906 83.867188 215.9375 84.1875 216.277344 84.648438 C 217.765625 86.660156 216.101562 89.394531 215.316406 90.476562 C 214.957031 90.96875 214.171875 91.605469 213.339844 92.285156 C 212.394531 93.050781 211.101562 94.101562 210.980469 94.613281 C 210.738281 95.675781 212.5 97.75 213.511719 98.425781 C 213.832031 98.644531 214.277344 98.847656 214.761719 99.007812 C 216.269531 99.496094 218.148438 99.550781 218.710938 98.503906 C 219.074219 97.8125 219.140625 96.703125 219.203125 95.632812 C 219.253906 94.707031 219.308594 93.753906 219.558594 92.988281 C 219.960938 91.753906 220.828125 90.46875 221.882812 89.550781 C 223.09375 88.492188 224.339844 88.097656 225.390625 88.4375 C 226.339844 88.75 227.054688 89.625 227.519531 91.042969 C 228.175781 93.050781 227.375 95.257812 225.203125 97.425781 L 222.710938 99.414062 C 222.464844 99.578125 222.25 99.707031 222.066406 99.816406 C 221.277344 100.285156 221.230469 100.316406 221.277344 101.574219 C 221.324219 102.726562 221.855469 104.003906 222.167969 104.660156 C 222.347656 105.035156 222.644531 105.660156 222.796875 105.707031 C 222.871094 105.730469 223.074219 105.675781 223.304688 105.605469 C 223.492188 105.550781 223.714844 105.488281 223.984375 105.425781 C 224.523438 105.304688 225.03125 105.15625 225.523438 105.011719 C 226.945312 104.597656 228.292969 104.203125 230.042969 104.535156 C 230.378906 104.597656 230.703125 104.679688 231.003906 104.777344 C 233.46875 105.582031 234.066406 107.300781 233.800781 108.636719 Z M 251.304688 163 C 249.519531 160.179688 247.445312 157.554688 245.675781 154.71875 C 243.980469 152.007812 242.605469 149.058594 240.742188 146.457031 C 240.152344 145.628906 238.691406 146.398438 238.980469 147.351562 C 239.9375 150.507812 241.800781 153.421875 243.566406 156.179688 C 245.355469 158.964844 247.238281 161.828125 249.582031 164.175781 C 250.375 164.96875 251.976562 164.066406 251.304688 163 Z M 277.9375 146.148438 C 275.574219 142.878906 272.632812 139.992188 269.820312 137.109375 C 267.238281 134.464844 264.476562 130.910156 261.152344 129.210938 C 260.25 128.75 258.886719 129.59375 259.523438 130.667969 C 261.4375 133.90625 264.925781 136.457031 267.570312 139.105469 C 270.429688 141.96875 273.125 145.054688 276.167969 147.71875 C 277.308594 148.714844 278.839844 147.402344 277.9375 146.148438 Z M 274.707031 94.550781 C 277.851562 95.046875 281.121094 94.960938 284.300781 95.0625 C 287.476562 95.164062 290.738281 95.445312 293.910156 95.226562 C 295.320312 95.132812 295.441406 93.21875 294.011719 93.019531 C 290.738281 92.5625 287.335938 92.621094 284.035156 92.5 C 280.878906 92.386719 277.675781 92.113281 274.523438 92.382812 C 273.1875 92.496094 273.585938 94.378906 274.707031 94.550781 Z M 277.171875 52.714844 C 278.265625 51.917969 276.867188 50.402344 275.785156 51.15625 C 272.742188 53.277344 269.660156 55.347656 266.539062 57.355469 C 263.707031 59.179688 260.648438 60.800781 257.996094 62.875 C 257.03125 63.625 258.121094 65.042969 259.152344 64.574219 C 262.453125 63.078125 265.53125 60.792969 268.53125 58.78125 C 271.457031 56.820312 274.332031 54.792969 277.171875 52.714844 Z M 227.011719 47.203125 C 228.511719 44.035156 229.128906 40.265625 230.144531 36.910156 C 231.183594 33.472656 232.328125 30.070312 233.414062 26.652344 C 233.816406 25.378906 231.957031 24.804688 231.460938 26.015625 C 230.054688 29.457031 228.851562 32.980469 227.714844 36.519531 C 226.660156 39.792969 225.210938 43.382812 224.960938 46.828125 C 224.867188 48.109375 226.539062 48.199219 227.011719 47.203125 Z M 179.585938 36.609375 C 178.40625 33.226562 177.414062 29.636719 175.882812 26.398438 C 175.359375 25.285156 173.597656 25.917969 173.867188 27.117188 C 174.6875 30.757812 176.183594 34.347656 177.390625 37.878906 C 178.539062 41.234375 179.453125 44.933594 181.117188 48.078125 C 181.683594 49.144531 183.296875 48.554688 183.089844 47.375 C 182.4375 43.734375 180.796875 40.09375 179.585938 36.609375 Z M 155.261719 69.359375 C 157.445312 70.386719 159.683594 71.640625 162.042969 72.183594 C 163.320312 72.472656 164.199219 70.878906 163.066406 70.066406 C 161.300781 68.804688 159.179688 68 157.21875 67.082031 C 154.878906 65.984375 152.542969 64.867188 150.21875 63.734375 C 146.050781 61.695312 141.964844 59.453125 137.738281 57.539062 C 136.480469 56.96875 135.554688 58.988281 136.691406 59.707031 C 140.71875 62.253906 145.066406 64.359375 149.324219 66.480469 C 151.292969 67.464844 153.273438 68.421875 155.261719 69.359375 Z M 153.550781 109.929688 C 150.082031 110.945312 146.4375 111.394531 142.90625 112.175781 C 139.636719 112.902344 136.085938 114.371094 132.75 114.480469 C 131.632812 114.519531 131.503906 112.996094 132.324219 112.515625 C 133.847656 111.621094 135.722656 111.289062 137.421875 110.847656 C 139.179688 110.386719 140.941406 109.960938 142.710938 109.566406 C 146.203125 108.792969 149.789062 107.941406 153.375 107.875 C 154.628906 107.847656 154.609375 109.617188 153.550781 109.929688 " fill-opacity="1" fill-rule="nonzero"/></g></g></g></g><g clip-path="url(#65ef30220b)"><g clip-path="url(#4c03391d41)"><g clip-path="url(#b3567690ba)"><path fill="#f4d4b7" d="M 174.15625 103.636719 C 174.117188 101.996094 174.417969 100.421875 174.015625 98.820312 C 173.917969 98.425781 173.402344 98.328125 173.167969 98.660156 C 171.242188 101.414062 171.382812 105.550781 172.046875 108.710938 C 172.589844 111.3125 173.417969 115.527344 176.054688 116.734375 C 176.378906 116.882812 176.800781 116.621094 176.894531 116.304688 C 177.636719 113.824219 175.554688 110.863281 174.929688 108.503906 C 174.507812 106.917969 174.195312 105.277344 174.15625 103.636719 Z M 195.679688 67.832031 C 191.25 68.890625 187.433594 71.6875 184.53125 75.140625 C 181.066406 79.269531 179.59375 84.304688 176.832031 88.824219 C 176.1875 89.882812 174.210938 89.34375 174.414062 88.035156 C 175.296875 82.421875 178.597656 76.664062 182.335938 72.457031 C 185.714844 68.65625 190.074219 66.027344 195.09375 65.132812 C 196.84375 64.820312 197.410156 67.417969 195.679688 67.832031 " fill-opacity="1" fill-rule="nonzero"/></g></g></g></svg>